<svg width="70" height="70" viewBox="0 0 70 70" fill="none" xmlns="http://www.w3.org/2000/svg">
<g clip-path="url(#clip0)">
<path d="M35.1899 68.6699C53.6915 68.6699 68.6899 53.6715 68.6899 35.1699C68.6899 16.6684 53.6915 1.66992 35.1899 1.66992C16.6884 1.66992 1.68994 16.6684 1.68994 35.1699C1.68994 53.6715 16.6884 68.6699 35.1899 68.6699Z" fill="#E0E6EA"/>
<path d="M35.19 70.1699C28.2676 70.1699 21.5007 68.1172 15.745 64.2714C9.98928 60.4255 5.50324 54.9593 2.85417 48.5639C0.205106 42.1684 -0.48801 35.1311 0.862472 28.3418C2.21295 21.5524 5.54638 15.316 10.4412 10.4212C15.3361 5.52636 21.5725 2.19294 28.3618 0.842453C35.1511 -0.50803 42.1885 0.185087 48.5839 2.83415C54.9793 5.48322 60.4455 9.96926 64.2914 15.725C68.1372 21.4807 70.19 28.2476 70.19 35.1699C70.19 44.4525 66.5025 53.3549 59.9387 59.9187C53.3749 66.4824 44.4725 70.1699 35.19 70.1699ZM35.19 3.16994C28.861 3.16994 22.6741 5.04671 17.4117 8.56291C12.1493 12.0791 8.04782 17.0768 5.62581 22.9241C3.20381 28.7713 2.5701 35.2054 3.80483 41.4128C5.03956 47.6202 8.08726 53.3221 12.5625 57.7974C17.0378 62.2726 22.7397 65.3203 28.9471 66.5551C35.1545 67.7898 41.5886 67.1561 47.4358 64.7341C53.2831 62.3121 58.2808 58.2106 61.797 52.9482C65.3132 47.6858 67.19 41.4989 67.19 35.1699C67.19 26.683 63.8185 18.5437 57.8174 12.5425C51.8162 6.54136 43.6769 3.16994 35.19 3.16994Z" fill="#286EB7"/>
<path d="M17.28 55.6598C16.9463 55.6592 16.6224 55.5475 16.3594 55.3421C16.0964 55.1368 15.9093 54.8496 15.8279 54.526C15.7464 54.2024 15.7751 53.8609 15.9096 53.5555C16.044 53.2501 16.2764 52.9983 16.57 52.8398L24.8 48.4298C24.974 48.3372 25.1645 48.2798 25.3607 48.2609C25.5569 48.2419 25.7549 48.2618 25.9434 48.3194C26.1319 48.3769 26.3072 48.4711 26.4594 48.5964C26.6115 48.7217 26.7374 48.8758 26.83 49.0498C26.9226 49.2238 26.98 49.4143 26.9989 49.6105C27.0179 49.8067 26.998 50.0047 26.9404 50.1932C26.8829 50.3817 26.7887 50.557 26.6634 50.7091C26.5381 50.8613 26.384 50.9872 26.21 51.0798L18 55.4798C17.7802 55.6026 17.5317 55.6647 17.28 55.6598Z" fill="#286EB7"/>
<path d="M52.64 55.4302C52.3923 55.4286 52.1486 55.3668 51.93 55.2502L43.71 50.8402C43.5285 50.7516 43.3668 50.6273 43.2345 50.4747C43.1022 50.3221 43.0021 50.1443 42.9402 49.9521C42.8782 49.7599 42.8558 49.5571 42.8741 49.356C42.8925 49.1549 42.9512 48.9595 43.0469 48.7816C43.1426 48.6038 43.2732 48.4471 43.4309 48.3209C43.5886 48.1947 43.7701 48.1017 43.9647 48.0474C44.1592 47.9931 44.3627 47.9787 44.5629 48.0049C44.7632 48.0312 44.9561 48.0976 45.13 48.2002L53.35 52.6002C53.6408 52.7617 53.8702 53.0146 54.0025 53.3198C54.1348 53.6249 54.1626 53.9652 54.0817 54.2878C54.0007 54.6104 53.8155 54.8973 53.5549 55.1039C53.2942 55.3104 52.9726 55.4252 52.64 55.4302Z" fill="#286EB7"/>
<path d="M58 21.7701L48.1 29.8701C48.0973 30.8023 47.7493 31.7004 47.1233 32.3911C46.4972 33.0818 45.6374 33.5161 44.71 33.6101C41.55 33.5401 40.97 30.1701 40.97 30.1701C40.64 25.5001 47.57 23.8701 47.57 23.8701L48.26 21.6201L40.76 17.5601C40.76 17.5601 35.26 28.3701 35 28.4501C34.74 28.3701 29.27 17.5601 29.27 17.5601L21.77 21.6201L22.46 23.8701C22.46 23.8701 29.39 25.5001 29.06 30.1701C29.06 30.1701 28.48 33.5401 25.32 33.6101C24.3925 33.5161 23.5327 33.0818 22.9067 32.3911C22.2806 31.7004 21.9326 30.8023 21.93 29.8701L12 21.7701C12 21.7701 4.51996 31.2501 13.71 38.5001L13.96 38.6701C15.5516 39.6872 17.368 40.2991 19.2506 40.4525C21.1332 40.6059 23.0247 40.2961 24.76 39.5501L27.23 38.5501L27.13 42.9201C27.13 42.9201 23.58 44.0001 22.07 46.8101C21.3597 48.3223 21.27 50.0525 21.82 51.6301L25.62 49.6301C26.1148 48.8043 26.8011 48.1097 27.6209 47.6049C28.4406 47.1002 29.3698 46.8001 30.33 46.7301L31.27 50.6001L26.33 55.2901L35 59.9401L43.67 55.2501L38.73 50.5601L39.67 46.6901C40.6301 46.7601 41.5593 47.0602 42.3791 47.5649C43.1988 48.0697 43.8851 48.7643 44.38 49.5901L48.15 51.5301C48.6834 49.9866 48.6047 48.2973 47.93 46.8101C46.42 44.0001 42.87 42.8701 42.87 42.8701L42.77 38.5001L45.24 39.5001C46.9659 40.2465 48.8478 40.5611 50.7227 40.4164C52.5975 40.2718 54.4089 39.6724 56 38.6701L56.25 38.5001C65.48 31.2501 58 21.7701 58 21.7701Z" fill="white"/>
<path d="M35 61.4402C34.7521 61.4398 34.5082 61.3779 34.29 61.2602L25.62 56.5702C25.4094 56.4593 25.2283 56.2995 25.0921 56.1042C24.9559 55.909 24.8685 55.6839 24.8372 55.4479C24.8058 55.2119 24.8315 54.9718 24.912 54.7478C24.9926 54.5237 25.1256 54.3222 25.3 54.1602L29.61 50.0702L29.22 48.4702C28.2779 48.8048 27.4751 49.4456 26.94 50.2902C26.7989 50.5526 26.5877 50.7707 26.33 50.9202L22.52 52.9202C22.3302 53.0241 22.1199 53.0851 21.9039 53.0989C21.6879 53.1128 21.4715 53.0791 21.27 53.0002C21.0694 52.9205 20.8881 52.7991 20.7381 52.6439C20.5881 52.4887 20.4728 52.3034 20.4 52.1002C19.7324 50.1307 19.858 47.9787 20.75 46.1002C21.8939 44.2019 23.6091 42.7142 25.65 41.8502V40.7902L25.32 40.9302C23.3607 41.7781 21.2227 42.1304 19.095 41.956C16.9672 41.7816 14.9151 41.0858 13.12 39.9302L12.81 39.7302C11.4256 38.7452 10.2572 37.4875 9.37668 36.0344C8.49619 34.5812 7.92221 32.9633 7.69002 31.2802C7.03002 25.7002 10.69 21.0302 10.83 20.8402C10.9503 20.6842 11.1009 20.5542 11.2728 20.458C11.4446 20.3617 11.6342 20.3012 11.83 20.2802C12.0277 20.2583 12.2278 20.2763 12.4184 20.3329C12.609 20.3896 12.7864 20.4839 12.94 20.6102L22.84 28.7102C23.0064 28.8445 23.1418 29.0133 23.2367 29.2049C23.3317 29.3965 23.384 29.6064 23.39 29.8202C23.366 30.3775 23.5537 30.9233 23.9154 31.3481C24.277 31.7728 24.786 32.0451 25.34 32.1102C25.8904 32.0484 26.4058 31.8091 26.8081 31.4284C27.2105 31.0477 27.4779 30.5464 27.57 30.0002C27.71 26.7602 22.17 25.3702 22.11 25.3602C21.8586 25.2992 21.6268 25.1755 21.4361 25.0007C21.2455 24.8258 21.1023 24.6054 21.02 24.3602L20.33 22.1102C20.2326 21.7801 20.2509 21.4267 20.3819 21.1084C20.5128 20.7902 20.7485 20.5262 21.05 20.3602L28.55 16.2902C28.7271 16.1962 28.9211 16.1383 29.1208 16.1196C29.3204 16.1009 29.5217 16.1219 29.7132 16.1814C29.9047 16.2409 30.0825 16.3377 30.2364 16.4662C30.3903 16.5947 30.5173 16.7524 30.61 16.9302C32.16 20.0002 33.88 23.3002 35 25.4202C36.12 23.3002 37.84 19.9602 39.39 16.8802C39.4827 16.7024 39.6097 16.5447 39.7636 16.4162C39.9175 16.2877 40.0953 16.1909 40.2868 16.1314C40.4783 16.0719 40.6796 16.0509 40.8793 16.0696C41.0789 16.0883 41.2729 16.1462 41.45 16.2402L49 20.3102C49.3028 20.4748 49.5397 20.7386 49.6708 21.0573C49.8019 21.376 49.8193 21.7302 49.72 22.0602L49 24.3102C48.9177 24.5554 48.7745 24.7758 48.5839 24.9507C48.3933 25.1255 48.1614 25.2492 47.91 25.3102C47.85 25.3102 42.32 26.7302 42.45 29.9402C42.5387 30.484 42.7991 30.9851 43.1932 31.3702C43.5873 31.7553 44.0943 32.0041 44.64 32.0802C45.2031 32.0269 45.7243 31.7598 46.0964 31.3338C46.4684 30.9078 46.663 30.3553 46.64 29.7902C46.6461 29.5764 46.6983 29.3665 46.7933 29.1749C46.8882 28.9833 47.0236 28.8145 47.19 28.6802L57.09 20.5802C57.4025 20.329 57.8011 20.2105 58.2 20.2502C58.3959 20.2712 58.5854 20.3317 58.7573 20.428C58.9291 20.5242 59.0797 20.6542 59.2 20.8102C59.36 21.0002 63 25.6702 62.34 31.2502C62.1131 32.9211 61.5473 34.5281 60.6772 35.9726C59.8071 37.417 58.6511 38.6685 57.28 39.6502L56.91 39.9002C55.1149 41.0558 53.0629 41.7516 50.9351 41.926C48.8073 42.1004 46.6693 41.7481 44.71 40.9002L44.38 40.7602V41.8202C46.421 42.6842 48.1362 44.1719 49.28 46.0702C50.1619 47.9542 50.2661 50.1099 49.57 52.0702C49.4912 52.2617 49.373 52.4345 49.2231 52.5775C49.0732 52.7205 48.895 52.8304 48.7 52.9002C48.5046 52.9733 48.296 53.0049 48.0876 52.9928C47.8793 52.9808 47.6757 52.9254 47.49 52.8302L43.7 50.9302C43.419 50.7892 43.191 50.5612 43.05 50.2802C42.5187 49.4385 41.7189 48.8007 40.78 48.4702L40.39 50.0702L44.7 54.1602C44.8744 54.3222 45.0075 54.5237 45.088 54.7478C45.1685 54.9718 45.1942 55.2119 45.1629 55.4479C45.1315 55.6839 45.0441 55.909 44.9079 56.1042C44.7717 56.2995 44.5907 56.4593 44.38 56.5702L35.71 61.2602C35.4923 61.3791 35.2481 61.4411 35 61.4402ZM28.86 54.9102L35 58.2302L41.14 54.9102L37.7 51.6502C37.5097 51.468 37.37 51.2395 37.2946 50.987C37.2192 50.7346 37.2107 50.4669 37.27 50.2102L38.21 46.3302C38.2972 45.9795 38.5081 45.6721 38.8039 45.4645C39.0997 45.2568 39.4605 45.163 39.82 45.2002C40.9367 45.2954 42.0186 45.636 42.9884 46.1979C43.9582 46.7597 44.7919 47.5288 45.43 48.4502L47.01 49.2602C46.973 48.6429 46.8275 48.0369 46.58 47.4702C45.41 45.3002 42.44 44.3102 42.41 44.3002C42.1198 44.1976 41.8682 44.0083 41.6893 43.7578C41.5105 43.5074 41.4129 43.2079 41.41 42.9002L41.31 38.5302C41.3048 38.2794 41.3626 38.0314 41.478 37.8087C41.5935 37.5861 41.7629 37.3959 41.9708 37.2557C42.1787 37.1154 42.4185 37.0295 42.6681 37.0058C42.9178 36.9822 43.1695 37.0215 43.4 37.1202L45.87 38.1702C47.3772 38.8247 49.0224 39.0978 50.6601 38.9652C52.2979 38.8326 53.8778 38.2986 55.26 37.4102L55.47 37.2702C56.5087 36.5284 57.3868 35.5844 58.0518 34.495C58.7168 33.4056 59.155 32.1931 59.34 30.9302C59.5085 28.4982 58.9104 26.0746 57.63 24.0002L49.5 30.6402C49.3394 31.806 48.7882 32.8829 47.9363 33.6949C47.0844 34.5068 45.9822 35.0058 44.81 35.1102H44.65C43.3763 35.0482 42.1634 34.5472 41.2173 33.6922C40.2712 32.8373 39.6502 31.6811 39.46 30.4202C39.46 30.3702 39.46 30.3202 39.46 30.2702C39.12 25.4802 44.27 23.3302 46.37 22.6602L46.46 22.3602L41.39 19.6202C36.33 29.6202 36.21 29.6202 35.5 29.8802C35.1756 29.9892 34.8244 29.9892 34.5 29.8802C33.79 29.6402 33.67 29.6002 28.61 19.6202L23.54 22.3602L23.63 22.6602C25.73 23.3302 30.88 25.4802 30.54 30.2702C30.54 30.3202 30.54 30.3702 30.54 30.4202C30.3498 31.6811 29.7289 32.8373 28.7827 33.6922C27.8366 34.5472 26.6237 35.0482 25.35 35.1102H25.19C24.0178 35.0058 22.9157 34.5068 22.0638 33.6949C21.2119 32.8829 20.6606 31.806 20.5 30.6402L12.37 24.0002C10.88 26.5802 8.52002 32.5202 14.63 37.3402L14.78 37.4302C16.1623 38.3186 17.7421 38.8526 19.3799 38.9852C21.0177 39.1178 22.6629 38.8447 24.17 38.1902L26.64 37.1402C26.8706 37.0415 27.1222 37.0022 27.3719 37.0258C27.6216 37.0495 27.8613 37.1354 28.0692 37.2757C28.2772 37.4159 28.4466 37.6061 28.562 37.8287C28.6774 38.0514 28.7352 38.2994 28.73 38.5502L28.63 42.9202C28.63 43.2287 28.5336 43.5294 28.3543 43.7804C28.1751 44.0314 27.9218 44.2201 27.63 44.3202C27.63 44.3202 24.63 45.3202 23.43 47.5402C23.1726 48.0965 23.0266 48.6978 23 49.3102L24.6 48.4602C25.2386 47.5362 26.0736 46.7648 27.0452 46.2012C28.0167 45.6376 29.1009 45.2958 30.22 45.2002C30.5795 45.163 30.9403 45.2568 31.2361 45.4645C31.5319 45.6721 31.7428 45.9795 31.83 46.3302L32.77 50.2102C32.8293 50.4669 32.8208 50.7346 32.7454 50.987C32.67 51.2395 32.5303 51.468 32.34 51.6502L28.86 54.9102Z" fill="#286EB7"/>
<path d="M55.68 53.5502C57.3534 53.5502 58.71 52.1937 58.71 50.5202C58.71 48.8468 57.3534 47.4902 55.68 47.4902C54.0066 47.4902 52.65 48.8468 52.65 50.5202C52.65 52.1937 54.0066 53.5502 55.68 53.5502Z" fill="white"/>
<path d="M55.67 55.0502C54.7716 55.0502 53.8935 54.7837 53.1467 54.2844C52.3999 53.7851 51.818 53.0754 51.4746 52.2453C51.1313 51.4151 51.042 50.5018 51.218 49.6208C51.394 48.7399 51.8274 47.9309 52.4633 47.2964C53.0992 46.6619 53.9091 46.2303 54.7904 46.0562C55.6718 45.8822 56.5849 45.9735 57.4143 46.3187C58.2437 46.6638 58.9521 47.2473 59.4497 47.9952C59.9474 48.7431 60.212 49.6219 60.21 50.5202C60.2073 51.7226 59.7279 52.8748 58.8767 53.724C58.0256 54.5733 56.8723 55.0502 55.67 55.0502ZM55.67 48.9802C55.3654 48.9802 55.0677 49.0705 54.8144 49.2398C54.5612 49.409 54.3638 49.6495 54.2472 49.9309C54.1307 50.2123 54.1002 50.5219 54.1596 50.8207C54.219 51.1194 54.3657 51.3938 54.5811 51.6092C54.7964 51.8245 55.0708 51.9712 55.3696 52.0306C55.6683 52.09 55.9779 52.0596 56.2593 51.943C56.5407 51.8264 56.7812 51.629 56.9505 51.3758C57.1197 51.1225 57.21 50.8248 57.21 50.5202C57.2047 50.1153 57.0402 49.7287 56.7519 49.4442C56.4637 49.1597 56.075 49.0002 55.67 49.0002V48.9802Z" fill="#286EB7"/>
<path d="M19.1399 58.3802C18.8977 58.3792 18.6592 58.3196 18.445 58.2064C18.2308 58.0932 18.0472 57.9298 17.91 57.7302L8.28995 43.8501C8.16525 43.6893 8.07459 43.5047 8.02349 43.3077C7.9724 43.1107 7.96194 42.9053 7.99275 42.7041C8.02356 42.5029 8.095 42.3101 8.20272 42.1374C8.31043 41.9646 8.45217 41.8157 8.61931 41.6995C8.78644 41.5833 8.97547 41.5024 9.17489 41.4616C9.37431 41.4208 9.57994 41.421 9.77927 41.4622C9.97859 41.5035 10.1674 41.5848 10.3343 41.7014C10.5012 41.8179 10.6426 41.9672 10.75 42.1401L20.3799 56.0002C20.5341 56.2265 20.6238 56.4906 20.6395 56.764C20.6551 57.0375 20.596 57.31 20.4686 57.5525C20.3412 57.795 20.1503 57.9982 19.9162 58.1405C19.6822 58.2828 19.4138 58.3587 19.1399 58.3602V58.3802Z" fill="#286EB7"/>
<path d="M31.9999 14.0899H37.9399L38.6399 9.85987C38.6737 9.67047 38.6654 9.47596 38.6155 9.29016C38.5656 9.10435 38.4754 8.93181 38.3513 8.78481C38.2272 8.6378 38.0723 8.51993 37.8975 8.43957C37.7227 8.35921 37.5323 8.31834 37.3399 8.31987H32.6399C32.4488 8.32057 32.26 8.36246 32.0865 8.44271C31.913 8.52295 31.7589 8.63964 31.6345 8.78485C31.5102 8.93005 31.4187 9.10035 31.3661 9.28414C31.3135 9.46792 31.3012 9.66088 31.3299 9.84987L31.9999 14.0899Z" fill="white"/>
<path d="M37.92 15.5898H32C31.6433 15.5917 31.2978 15.4656 31.0262 15.2344C30.7546 15.0032 30.575 14.6822 30.52 14.3298L29.85 10.0798C29.7863 9.67692 29.8108 9.26498 29.9219 8.87245C30.0329 8.47993 30.2277 8.11615 30.4929 7.80624C30.7582 7.49632 31.0875 7.24763 31.4582 7.07734C31.8288 6.90704 32.232 6.81919 32.64 6.81985H37.34C37.7506 6.8182 38.1565 6.90655 38.5293 7.07868C38.9021 7.25082 39.2326 7.50256 39.4976 7.81619C39.7626 8.12982 39.9557 8.49771 40.0632 8.89399C40.1707 9.29026 40.1901 9.70528 40.12 10.1098L39.42 14.3398C39.3603 14.693 39.1763 15.0131 38.9012 15.2423C38.6261 15.4716 38.278 15.5948 37.92 15.5898ZM33.26 12.5898H36.65L37.11 9.81985H32.83L33.26 12.5898Z" fill="#286EB7"/>
</g>
<defs>
<clipPath id="clip0">
<rect width="70" height="70" fill="white"/>
</clipPath>
</defs>
</svg>
