<svg width="70" height="70" viewBox="0 0 70 70" fill="none" xmlns="http://www.w3.org/2000/svg">
<g clip-path="url(#clip0)">
<path d="M61.29 36.83V55.48C53.44 54.32 47.1 53.85 35.47 58.33C23.83 53.85 17.47 54.33 9.64001 55.48V10.35C16.6217 9.97729 23.5999 11.1449 30.08 13.77C30.08 13.77 27.2 23.08 31.33 32.08C31.33 32.08 38.08 43.5 54.17 40.75L61.29 36.83Z" fill="#E0E6EA"/>
<path d="M70 21.47C70.0037 16.6338 68.3729 11.9382 65.3724 8.14538C62.3718 4.35251 58.1776 1.68494 53.4703 0.575574C48.763 -0.533791 43.819 -0.0198414 39.4406 2.03402C35.0621 4.08787 31.5062 7.5611 29.35 11.89C23.0311 9.56177 16.3051 8.54114 9.57998 8.89003C9.19348 8.90796 8.82861 9.07357 8.56066 9.35268C8.29271 9.6318 8.14212 10.0031 8.13998 10.39V14.52L1.36997 15C0.991618 15.0329 0.639809 15.208 0.385544 15.4901C0.131279 15.7723 -0.00651293 16.1403 -2.50141e-05 16.52V65.25C0.00105019 65.4588 0.0451127 65.6651 0.129416 65.856C0.213719 66.047 0.336456 66.2186 0.489975 66.36C0.64434 66.4978 0.824738 66.6034 1.02053 66.6703C1.21632 66.7373 1.42354 66.7644 1.62997 66.75C10.74 65.94 19.48 65.4 27.63 65.16C28.367 66.6175 29.496 67.8405 30.89 68.6916C32.284 69.5426 33.8877 69.988 35.5209 69.9776C37.1542 69.9672 38.7521 69.5015 40.1351 68.6328C41.5182 67.764 42.6315 66.5268 43.35 65.06C51.7077 65.1642 60.0535 65.7251 68.35 66.74C68.5583 66.761 68.7688 66.7381 68.9678 66.6727C69.1668 66.6074 69.3499 66.5012 69.5053 66.3608C69.6607 66.2205 69.785 66.0491 69.8702 65.8578C69.9554 65.6665 69.9996 65.4595 70 65.25V22.25C70.0096 22.167 70.0096 22.0831 70 22C70 21.81 70 21.64 70 21.47ZM48.53 3.00003C52.1834 2.99805 55.7554 4.07962 58.7941 6.10792C61.8328 8.13623 64.2017 11.0202 65.6012 14.3949C67.0006 17.7697 67.3678 21.4837 66.6563 25.0672C65.9448 28.6507 64.1864 31.9427 61.6038 34.5268C59.0211 37.1108 55.7301 38.8709 52.147 39.5844C48.5639 40.2979 44.8497 39.9327 41.4741 38.535C38.0986 37.1374 35.2134 34.77 33.1834 31.7324C31.1535 28.6949 30.07 25.1235 30.07 21.47C30.0726 16.574 32.018 11.8792 35.4791 8.41622C38.9402 4.95329 43.634 3.00533 48.53 3.00003ZM37 39.53C40.3961 41.7173 44.3431 42.8962 48.3825 42.9298C52.4218 42.9635 56.3879 41.8504 59.82 39.72V53.72C53 52.83 46.84 52.68 37 56.18V39.53ZM11.14 11.8C16.9533 11.6505 22.7413 12.618 28.19 14.65C26.8728 18.5679 26.7206 22.7838 27.7518 26.7864C28.7831 30.789 30.9536 34.4065 34 37.2V56.2C24.12 52.7 18 52.85 11.17 53.77L11.14 11.8ZM67 63.56C58.8247 62.634 50.6071 62.13 42.38 62.05C42.0654 62.0446 41.7571 62.1383 41.4987 62.3178C41.2403 62.4972 41.0448 62.7534 40.94 63.05C40.5577 64.1939 39.8272 65.1895 38.8508 65.8974C37.8744 66.6053 36.701 66.9901 35.495 66.9978C34.289 67.0055 33.1108 66.6358 32.1254 65.9404C31.14 65.2451 30.3969 64.2589 30 63.12C29.8954 62.8192 29.6973 62.5598 29.4345 62.3798C29.1718 62.1998 28.8583 62.1088 28.54 62.12C20.54 62.34 11.95 62.84 2.98997 63.61V17.89L8.12998 17.5V55.5C8.13 55.7162 8.17644 55.9298 8.26615 56.1265C8.35586 56.3232 8.48675 56.4983 8.64997 56.64C8.81355 56.78 9.00553 56.8829 9.21269 56.9416C9.41985 57.0003 9.63727 57.0134 9.84998 56.98C17.65 55.83 23.61 55.4 34.92 59.75C35.0916 59.8187 35.2751 59.8527 35.46 59.85C35.6415 59.8516 35.8215 59.8176 35.99 59.75C47.31 55.38 53.27 55.81 61.07 57C61.2827 57.0334 61.5001 57.0203 61.7073 56.9616C61.9144 56.9029 62.1064 56.8 62.27 56.66C62.4332 56.5183 62.5641 56.3432 62.6538 56.1465C62.7435 55.9498 62.7899 55.7362 62.79 55.52V37.52C64.4506 36.0308 65.8707 34.2936 67 32.37V63.56Z" fill="#286EB7"/>
<path d="M44.15 24.21C44.3329 24.353 44.5232 24.4865 44.72 24.61L48.5999 27.09C48.7022 27.1714 48.8128 27.2418 48.93 27.3L49.56 27.7C49.9053 27.9406 50.162 28.288 50.2905 28.6888C50.4191 29.0896 50.4124 29.5215 50.2715 29.9181C50.1306 30.3147 49.8632 30.654 49.5106 30.8838C49.158 31.1136 48.7397 31.2212 48.32 31.19C47.8102 31.1525 47.3358 30.9153 47 30.53C46.8352 30.3402 46.7096 30.1197 46.6307 29.8811C46.5517 29.6425 46.5209 29.3906 46.54 29.14C46.5549 28.9434 46.5307 28.7458 46.4688 28.5587C46.4068 28.3715 46.3083 28.1985 46.1791 28.0497C46.0498 27.9009 45.8922 27.7792 45.7156 27.6917C45.5389 27.6042 45.3467 27.5526 45.15 27.54C44.9523 27.5222 44.7531 27.5444 44.5642 27.6052C44.3753 27.666 44.2006 27.7641 44.0504 27.8938C43.9002 28.0235 43.7776 28.182 43.6899 28.36C43.6022 28.538 43.5512 28.7319 43.54 28.93C43.452 30.2317 43.8836 31.5152 44.7402 32.4992C45.5968 33.4833 46.8086 34.0877 48.11 34.18H48.46C49.3459 34.1761 50.2145 33.9336 50.9743 33.4779C51.7341 33.0222 52.357 32.3702 52.7776 31.5904C53.1982 30.8106 53.4009 29.9319 53.3643 29.0467C53.3278 28.1615 53.0534 27.3024 52.57 26.56C52.72 26.45 52.88 26.35 53.03 26.23C53.518 25.8064 53.9176 25.2907 54.2059 24.7124C54.4941 24.1341 54.6654 23.5046 54.71 22.86C54.7596 22.0771 54.6243 21.2935 54.3151 20.5726C54.0059 19.8517 53.5314 19.2136 52.93 18.71C52.7469 18.5593 52.553 18.4223 52.3499 18.3L48.48 15.83C48.3734 15.7417 48.2557 15.6678 48.13 15.61L47.5099 15.21C47.2321 15.0196 47.0092 14.7594 46.8637 14.4556C46.7182 14.1518 46.6552 13.8151 46.681 13.4792C46.7068 13.1433 46.8205 12.8202 47.0107 12.5422C47.2008 12.2641 47.4608 12.0411 47.7645 11.8953C48.0682 11.7495 48.4049 11.6862 48.7407 11.7117C49.0766 11.7372 49.3999 11.8507 49.678 12.0406C49.9562 12.2306 50.1795 12.4904 50.3256 12.7939C50.4716 13.0975 50.5352 13.4341 50.5099 13.77C50.4962 13.967 50.5213 14.1647 50.584 14.352C50.6466 14.5393 50.7455 14.7124 50.875 14.8614C51.1367 15.1624 51.5071 15.3471 51.905 15.375C52.3028 15.4028 52.6954 15.2715 52.9964 15.0099C53.2974 14.7483 53.4821 14.3778 53.5099 13.98C53.593 12.6912 53.1671 11.4214 52.3237 10.4434C51.4803 9.46536 50.2869 8.85733 49 8.74998C48.0864 8.68638 47.1732 8.879 46.3632 9.30618C45.5532 9.73336 44.8784 10.3781 44.4149 11.168C43.9514 11.9578 43.7176 12.8613 43.7397 13.7768C43.7617 14.6923 44.0389 15.5834 44.54 16.35C43.9269 16.765 43.4159 17.3135 43.0452 17.9543C42.6746 18.5952 42.454 19.3117 42.4 20.05C42.3451 20.832 42.4749 21.616 42.7789 22.3387C43.0829 23.0613 43.5525 23.7023 44.15 24.21ZM51 21C51.2341 21.1995 51.4191 21.4504 51.5406 21.7331C51.662 22.0158 51.7165 22.3227 51.7 22.63C51.6916 22.8898 51.6305 23.1451 51.5205 23.3806C51.4105 23.6161 51.2538 23.8268 51.06 24C50.7762 24.2438 50.4297 24.4032 50.06 24.46L46.2599 22L46.05 21.85C45.8158 21.6504 45.6308 21.3995 45.5093 21.1168C45.3879 20.8341 45.3334 20.5272 45.3499 20.22C45.3859 19.7742 45.5747 19.3546 45.8845 19.032C46.1943 18.7095 46.606 18.5039 47.05 18.45L50.82 20.86L51 21Z" fill="#286EB7"/>
</g>
<defs>
<clipPath id="clip0">
<rect width="70" height="70" fill="white"/>
</clipPath>
</defs>
</svg>
