<svg width="70" height="70" viewBox="0 0 70 70" fill="none" xmlns="http://www.w3.org/2000/svg">
<g clip-path="url(#clip0)">
<path d="M54.7099 42.86C58.8401 41.5229 62.8988 39.9742 66.8699 38.22C67.367 37.9649 67.783 37.5761 68.071 37.0972C68.359 36.6184 68.5075 36.0687 68.4999 35.51V18.09C68.516 17.3119 68.2229 16.5592 67.6849 15.9969C67.147 15.4345 66.4079 15.1084 65.6299 15.09H4.3699C3.59186 15.1084 2.85284 15.4345 2.31486 15.9969C1.77687 16.5592 1.4838 17.3119 1.4999 18.09V35.2C1.49131 35.7539 1.63625 36.2994 1.91866 36.7759C2.20107 37.2525 2.60992 37.6416 3.0999 37.9C7.00662 39.8566 11.0835 41.4532 15.2799 42.67C15.2799 42.67 38.6699 48.75 54.7099 42.86Z" fill="#E0E6EA"/>
<path d="M49.23 11.7C48.8329 11.6974 48.4529 11.5385 48.1722 11.2578C47.8915 10.977 47.7326 10.597 47.73 10.2V4.53001C47.7339 4.33052 47.6981 4.13223 47.6245 3.94677C47.5509 3.7613 47.441 3.59238 47.3014 3.4499C47.1617 3.30742 46.995 3.19424 46.811 3.11699C46.627 3.03974 46.4295 2.99997 46.23 3.00001H24.6C24.2021 3.00001 23.8206 3.15805 23.5393 3.43935C23.258 3.72066 23.1 4.10219 23.1 4.50001V10.2C23.1 10.5978 22.9419 10.9794 22.6606 11.2607C22.3793 11.542 21.9978 11.7 21.6 11.7C21.2021 11.7 20.8206 11.542 20.5393 11.2607C20.258 10.9794 20.1 10.5978 20.1 10.2V4.53001C20.096 3.93654 20.2095 3.34815 20.4338 2.79872C20.6582 2.24929 20.9891 1.74967 21.4073 1.32862C21.8256 0.907573 22.323 0.57342 22.8709 0.3454C23.4189 0.117381 24.0065 -2.02687e-06 24.6 1.11617e-05H46.23C46.8213 -0.00130728 47.407 0.114189 47.9536 0.339868C48.5001 0.565547 48.9967 0.896964 49.4149 1.31509C49.833 1.73322 50.1644 2.22982 50.3901 2.77638C50.6158 3.32294 50.7313 3.90869 50.73 4.50001V10.2C50.73 10.5978 50.5719 10.9794 50.2906 11.2607C50.0093 11.542 49.6278 11.7 49.23 11.7Z" fill="#286EB7"/>
<path d="M14.99 41.43V47.3C14.99 49.2717 16.5883 50.87 18.56 50.87H19.41C21.3816 50.87 22.98 49.2717 22.98 47.3V41.43C22.98 39.4583 21.3816 37.86 19.41 37.86H18.56C16.5883 37.86 14.99 39.4583 14.99 41.43Z" fill="white"/>
<path d="M19.41 52.37H18.56C17.2162 52.3673 15.9281 51.8323 14.9779 50.8821C14.0276 49.9319 13.4926 48.6438 13.49 47.3V41.43C13.4926 40.0861 14.0276 38.7981 14.9779 37.8479C15.9281 36.8976 17.2162 36.3626 18.56 36.36H19.41C20.7538 36.3626 22.0419 36.8976 22.9921 37.8479C23.9423 38.7981 24.4773 40.0861 24.48 41.43V47.3C24.4773 48.6438 23.9423 49.9319 22.9921 50.8821C22.0419 51.8323 20.7538 52.3673 19.41 52.37ZM18.56 39.37C18.011 39.37 17.4845 39.5881 17.0963 39.9763C16.7081 40.3645 16.49 40.891 16.49 41.44V47.3C16.49 47.849 16.7081 48.3755 17.0963 48.7637C17.4845 49.1519 18.011 49.37 18.56 49.37H19.41C19.959 49.37 20.4855 49.1519 20.8737 48.7637C21.2619 48.3755 21.48 47.849 21.48 47.3V41.43C21.48 40.881 21.2619 40.3545 20.8737 39.9663C20.4855 39.5781 19.959 39.36 19.41 39.36L18.56 39.37Z" fill="#286EB7"/>
<path d="M47.01 41.42V47.29C47.01 49.2616 48.6084 50.86 50.58 50.86H51.43C53.4017 50.86 55 49.2616 55 47.29V41.42C55 39.4483 53.4017 37.85 51.43 37.85H50.58C48.6084 37.85 47.01 39.4483 47.01 41.42Z" fill="white"/>
<path d="M51.44 52.37H50.58C49.2362 52.3673 47.9481 51.8323 46.9979 50.8821C46.0477 49.9319 45.5127 48.6438 45.51 47.3V41.43C45.5127 40.0861 46.0477 38.7981 46.9979 37.8479C47.9481 36.8976 49.2362 36.3626 50.58 36.36H51.44C52.7838 36.3626 54.0719 36.8976 55.0221 37.8479C55.9724 38.7981 56.5074 40.0861 56.51 41.43V47.3C56.5074 48.6438 55.9724 49.9319 55.0221 50.8821C54.0719 51.8323 52.7838 52.3673 51.44 52.37ZM50.58 39.37C50.031 39.37 49.5045 39.5881 49.1163 39.9763C48.7281 40.3645 48.51 40.891 48.51 41.44V47.3C48.51 47.849 48.7281 48.3755 49.1163 48.7637C49.5045 49.1519 50.031 49.37 50.58 49.37H51.44C51.989 49.37 52.5155 49.1519 52.9037 48.7637C53.2919 48.3755 53.51 47.849 53.51 47.3V41.43C53.51 40.881 53.2919 40.3545 52.9037 39.9663C52.5155 39.5781 51.989 39.36 51.44 39.36L50.58 39.37Z" fill="#286EB7"/>
<path d="M65.6299 13.59H4.36993C3.19408 13.6085 2.07357 14.0926 1.25429 14.9363C0.435008 15.7799 -0.0161112 16.9141 -7.49163e-05 18.09V35.2C0.00134576 36.025 0.228542 36.8339 0.656891 37.539C1.08524 38.2441 1.6984 38.8186 2.42993 39.2C2.80993 39.39 3.19992 39.56 3.57993 39.74V65.47C3.57597 66.0635 3.68944 66.6519 3.91382 67.2013C4.13819 67.7507 4.46903 68.2504 4.88729 68.6714C5.30555 69.0925 5.80296 69.4266 6.35089 69.6546C6.89882 69.8827 7.48644 70 8.07992 70H61.9199C63.1134 70 64.258 69.5259 65.1019 68.682C65.9458 67.8381 66.4199 66.6935 66.4199 65.5V40.08L67.5299 39.57C68.278 39.1894 68.9053 38.6079 69.3416 37.8908C69.7778 37.1738 70.0058 36.3494 69.9999 35.51V18.09C70.016 16.9141 69.5648 15.7799 68.7456 14.9363C67.9263 14.0926 66.8058 13.6085 65.6299 13.59ZM66.9999 35.51C67.0091 35.7868 66.941 36.0607 66.8033 36.3009C66.6655 36.5411 66.4635 36.7382 66.2199 36.87C62.3954 38.7405 58.4091 40.2601 54.3099 41.41L55.1199 44.3C57.9403 43.4986 60.7117 42.5337 63.4199 41.41V65.47C63.4199 65.8679 63.2619 66.2494 62.9806 66.5307C62.6993 66.812 62.3177 66.97 61.9199 66.97H8.07992C7.6821 66.97 7.30057 66.812 7.01927 66.5307C6.73796 66.2494 6.57993 65.8679 6.57993 65.47V41.14C9.27763 42.3042 12.0426 43.306 14.8599 44.14L15.6999 41.26C11.5908 40.0531 7.59811 38.4801 3.76993 36.56C3.52973 36.4251 3.33102 36.2271 3.19529 35.9874C3.05957 35.7477 2.99201 35.4754 2.99993 35.2V18.09C2.98363 17.7097 3.11861 17.3384 3.37534 17.0573C3.63207 16.7762 3.98967 16.6082 4.36993 16.59H65.6299C66.0102 16.6082 66.3678 16.7762 66.6245 17.0573C66.8812 17.3384 67.0162 17.7097 66.9999 18.09V35.51Z" fill="#286EB7"/>
<path d="M23.23 43L22.73 46C26.8914 46.684 31.1028 47.0185 35.32 47C39.3151 46.998 43.3039 46.6837 47.25 46.06L46.78 43.06C38.9777 44.3052 31.0258 44.285 23.23 43Z" fill="#286EB7"/>
</g>
<defs>
<clipPath id="clip0">
<rect width="70" height="70" fill="white"/>
</clipPath>
</defs>
</svg>
