<svg xmlns="http://www.w3.org/2000/svg" viewBox="0 0 30 29"><path d="M27.85 3.3a1.07 1.07 0 0 1 1.29-.83A1.09 1.09 0 0 1 30 3.76L28.64 10a1.11 1.11 0 0 1-.47.69 1.29 1.29 0 0 1-.5.17 1.13 1.13 0 0 1-.32 0l-6.23-1.37a1.09 1.09 0 1 1 .45-2.13l3.63.78a12 12 0 0 0-22.34 6 1.09 1.09 0 1 1-2.17 0A14.15 14.15 0 0 1 27.05 7zM27 13.85a1.09 1.09 0 0 1 2.18-.07A14.18 14.18 0 0 1 15.49 28.4H15a14.15 14.15 0 0 1-11.93-6.56l-.93 3.46a1.09 1.09 0 0 1-1 .81 1.35 1.35 0 0 1-.28 0A1.08 1.08 0 0 1 0 24.74l1.65-6.16a1.06 1.06 0 0 1 .51-.66 1 1 0 0 1 .84-.11l6.16 1.65a1.09 1.09 0 1 1-.57 2.1l-3.78-1A12 12 0 0 0 15 26.23h.39A12 12 0 0 0 27 13.85z" fill-rule="evenodd"/></svg>