<svg width="70" height="70" viewBox="0 0 70 70" fill="none" xmlns="http://www.w3.org/2000/svg">
<g clip-path="url(#clip0)">
<path d="M67.8301 6.92999H8.05005V16.42H67.8301V6.92999Z" fill="#E0E6EA"/>
<path d="M15.29 70.15C23.7344 70.15 30.58 63.3044 30.58 54.86C30.58 46.4156 23.7344 39.57 15.29 39.57C6.84557 39.57 0 46.4156 0 54.86C0 63.3044 6.84557 70.15 15.29 70.15Z" fill="#E0E6EA"/>
<path d="M15.29 42.57C17.7207 42.57 20.0969 43.2908 22.118 44.6413C24.139 45.9917 25.7143 47.9111 26.6445 50.1568C27.5747 52.4025 27.8181 54.8736 27.3438 57.2577C26.8696 59.6417 25.6991 61.8316 23.9803 63.5504C22.2616 65.2691 20.0717 66.4396 17.6877 66.9139C15.3036 67.3881 12.8325 67.1447 10.5868 66.2145C8.34111 65.2843 6.42168 63.709 5.07124 61.688C3.72079 59.6669 3 57.2907 3 54.86C3.00265 51.6013 4.29833 48.4768 6.60258 46.1726C8.90683 43.8683 12.0313 42.5727 15.29 42.57ZM15.29 39.57C12.2655 39.568 9.30835 40.4631 6.79261 42.142C4.27686 43.8209 2.31555 46.2081 1.15675 49.0018C-0.00204623 51.7956 -0.306266 54.8702 0.282572 57.8368C0.87141 60.8034 2.32685 63.5288 4.4648 65.6681C6.60274 67.8075 9.32714 69.2647 12.2934 69.8555C15.2596 70.4463 18.3345 70.1441 21.1289 68.9871C23.9234 67.8301 26.3119 65.8704 27.9925 63.3557C29.673 60.8411 30.57 57.8845 30.57 54.86C30.57 50.8066 28.9605 46.919 26.0952 44.0519C23.2299 41.1847 19.3434 39.5727 15.29 39.57Z" fill="#286EB7"/>
<path d="M16.79 54.69V48.63C16.79 48.2322 16.632 47.8506 16.3507 47.5693C16.0694 47.288 15.6879 47.13 15.29 47.13C14.8922 47.13 14.5107 47.288 14.2294 47.5693C13.9481 47.8506 13.79 48.2322 13.79 48.63V56.11L19.35 60.66C19.6203 60.8754 19.9545 60.995 20.3 61C20.5223 61.0013 20.742 60.9525 20.9428 60.8573C21.1436 60.7621 21.3204 60.6229 21.46 60.45C21.7124 60.1407 21.832 59.7439 21.7926 59.3467C21.7533 58.9494 21.5582 58.5838 21.25 58.33L16.79 54.69Z" fill="#286EB7"/>
<path d="M65.52 4.33H58.52V1.5C58.52 1.10218 58.3619 0.720644 58.0806 0.43934C57.7993 0.158035 57.4178 0 57.02 0C56.6222 0 56.2406 0.158035 55.9593 0.43934C55.678 0.720644 55.52 1.10218 55.52 1.5V4.33H45.81V1.5C45.81 1.10218 45.6519 0.720644 45.3706 0.43934C45.0893 0.158035 44.7078 0 44.31 0C43.9122 0 43.5306 0.158035 43.2493 0.43934C42.968 0.720644 42.81 1.10218 42.81 1.5V4.33H33.08V1.5C33.08 1.10218 32.9219 0.720644 32.6406 0.43934C32.3593 0.158035 31.9778 0 31.58 0C31.1821 0 30.8006 0.158035 30.5193 0.43934C30.238 0.720644 30.08 1.10218 30.08 1.5V4.33H20.35V1.5C20.35 1.10218 20.1919 0.720644 19.9106 0.43934C19.6293 0.158035 19.2478 0 18.85 0C18.4522 0 18.0706 0.158035 17.7893 0.43934C17.508 0.720644 17.35 1.10218 17.35 1.5V4.33H10.35C9.1565 4.33 8.01191 4.80411 7.16799 5.64802C6.32408 6.49193 5.84998 7.63653 5.84998 8.83V43.39H8.84998V18.69H67V52.45C67 52.8478 66.8419 53.2294 66.5606 53.5107C66.2793 53.792 65.8978 53.95 65.5 53.95H29.25V56.95H65.52C66.7126 56.9474 67.8557 56.4724 68.699 55.6291C69.5424 54.7857 70.0173 53.6427 70.02 52.45V8.83C70.02 7.63653 69.5459 6.49193 68.702 5.64802C67.858 4.80411 66.7134 4.33 65.52 4.33ZM67 15.69H8.86998V8.83C8.86998 8.43218 9.02801 8.05064 9.30932 7.76934C9.59062 7.48804 9.97215 7.33 10.37 7.33H17.37V10.41C17.37 10.8078 17.528 11.1894 17.8093 11.4707C18.0906 11.752 18.4722 11.91 18.87 11.91C19.2678 11.91 19.6493 11.752 19.9306 11.4707C20.2119 11.1894 20.37 10.8078 20.37 10.41V7.33H30.1V10.41C30.1 10.8078 30.258 11.1894 30.5393 11.4707C30.8206 11.752 31.2022 11.91 31.6 11.91C31.9978 11.91 32.3793 11.752 32.6606 11.4707C32.9419 11.1894 33.1 10.8078 33.1 10.41V7.33H42.83V10.41C42.83 10.8078 42.988 11.1894 43.2693 11.4707C43.5506 11.752 43.9322 11.91 44.33 11.91C44.7278 11.91 45.1093 11.752 45.3906 11.4707C45.6719 11.1894 45.83 10.8078 45.83 10.41V7.33H55.55V10.41C55.55 10.8078 55.708 11.1894 55.9893 11.4707C56.2706 11.752 56.6522 11.91 57.05 11.91C57.4478 11.91 57.8293 11.752 58.1106 11.4707C58.3919 11.1894 58.55 10.8078 58.55 10.41V7.33H65.55C65.9391 7.34298 66.3079 7.50672 66.5785 7.78663C66.849 8.06654 67.0002 8.44069 67 8.83V15.69Z" fill="#286EB7"/>
<path d="M52.66 35.86C52.6601 36.728 52.918 37.5764 53.4011 38.2975C53.8842 39.0186 54.5706 39.58 55.3733 39.9103C56.1759 40.2406 57.0586 40.3249 57.9094 40.1527C58.7601 39.9804 59.5404 39.5592 60.1513 38.9427C60.7623 38.3261 61.1762 37.5419 61.3407 36.6897C61.5052 35.8374 61.4127 34.9555 61.075 34.1559C60.7374 33.3563 60.1698 32.6751 59.4442 32.1986C58.7187 31.7222 57.868 31.4721 57 31.48C55.8445 31.4879 54.7392 31.9532 53.9258 32.774C53.1125 33.5949 52.6574 34.7044 52.66 35.86ZM57 34.48C57.2734 34.478 57.5412 34.5572 57.7694 34.7077C57.9977 34.8581 58.1761 35.0729 58.2821 35.3249C58.3881 35.5769 58.4169 35.8547 58.3647 36.123C58.3126 36.3914 58.182 36.6382 57.9894 36.8322C57.7968 37.0262 57.5509 37.1586 57.283 37.2127C57.015 37.2668 56.737 37.24 56.4843 37.1359C56.2315 37.0317 56.0154 36.8548 55.8633 36.6277C55.7112 36.4005 55.6301 36.1333 55.63 35.86C55.63 35.4957 55.7741 35.1462 56.0307 34.8877C56.2873 34.6292 56.6358 34.4826 57 34.48Z" fill="#286EB7"/>
<path d="M18.85 26.86C19.6784 26.86 20.35 26.1884 20.35 25.36C20.35 24.5316 19.6784 23.86 18.85 23.86C18.0215 23.86 17.35 24.5316 17.35 25.36C17.35 26.1884 18.0215 26.86 18.85 26.86Z" fill="#286EB7"/>
<path d="M31.58 26.86C32.4084 26.86 33.08 26.1884 33.08 25.36C33.08 24.5316 32.4084 23.86 31.58 23.86C30.7515 23.86 30.08 24.5316 30.08 25.36C30.08 26.1884 30.7515 26.86 31.58 26.86Z" fill="#286EB7"/>
<path d="M44.3101 26.86C45.1385 26.86 45.8101 26.1884 45.8101 25.36C45.8101 24.5316 45.1385 23.86 44.3101 23.86C43.4816 23.86 42.8101 24.5316 42.8101 25.36C42.8101 26.1884 43.4816 26.86 44.3101 26.86Z" fill="#286EB7"/>
<path d="M31.58 37.36C32.4084 37.36 33.08 36.6884 33.08 35.86C33.08 35.0316 32.4084 34.36 31.58 34.36C30.7515 34.36 30.08 35.0316 30.08 35.86C30.08 36.6884 30.7515 37.36 31.58 37.36Z" fill="#286EB7"/>
<path d="M44.3101 37.36C45.1385 37.36 45.8101 36.6884 45.8101 35.86C45.8101 35.0316 45.1385 34.36 44.3101 34.36C43.4816 34.36 42.8101 35.0316 42.8101 35.86C42.8101 36.6884 43.4816 37.36 44.3101 37.36Z" fill="#286EB7"/>
<path d="M57.03 26.86C57.8585 26.86 58.53 26.1884 58.53 25.36C58.53 24.5316 57.8585 23.86 57.03 23.86C56.2016 23.86 55.53 24.5316 55.53 25.36C55.53 26.1884 56.2016 26.86 57.03 26.86Z" fill="#286EB7"/>
<path d="M44.3101 47.85C45.1385 47.85 45.8101 47.1784 45.8101 46.35C45.8101 45.5215 45.1385 44.85 44.3101 44.85C43.4816 44.85 42.8101 45.5215 42.8101 46.35C42.8101 47.1784 43.4816 47.85 44.3101 47.85Z" fill="#286EB7"/>
<path d="M57.03 47.85C57.8585 47.85 58.53 47.1784 58.53 46.35C58.53 45.5215 57.8585 44.85 57.03 44.85C56.2016 44.85 55.53 45.5215 55.53 46.35C55.53 47.1784 56.2016 47.85 57.03 47.85Z" fill="#286EB7"/>
</g>
<defs>
<clipPath id="clip0">
<rect width="70" height="70" fill="white"/>
</clipPath>
</defs>
</svg>
