<svg width="70" height="70" viewBox="0 0 70 70" fill="none" xmlns="http://www.w3.org/2000/svg">
<g clip-path="url(#clip0)">
<path d="M1.51001 28.33L2.63001 68.48L22.25 50.16L1.51001 28.33Z" fill="#E0E6EA"/>
<path d="M13.75 60.19L33.18 41.41L59.19 68.5L20.81 68L13.75 60.19Z" fill="#E0E6EA"/>
<path d="M65.5 17H63.13V20H65.5C65.8978 20 66.2794 20.158 66.5607 20.4393C66.842 20.7206 67 21.1022 67 21.5V41.5L51.44 57.11L34.92 40.6L43.76 31.75L41.64 29.63L22.74 48.53L3 28.79V21.5C3 21.1022 3.15804 20.7206 3.43934 20.4393C3.72064 20.158 4.10218 20 4.5 20H36.5V17H4.5C3.30734 17.0026 2.16428 17.4776 1.32094 18.3209C0.477596 19.1643 0.00264157 20.3073 0 21.5L0 65.5C0.00264157 66.6927 0.477596 67.8357 1.32094 68.6791C2.16428 69.5224 3.30734 69.9974 4.5 70H65.5C66.6927 69.9974 67.8357 69.5224 68.6791 68.6791C69.5224 67.8357 69.9974 66.6927 70 65.5V21.5C69.9974 20.3073 69.5224 19.1643 68.6791 18.3209C67.8357 17.4776 66.6927 17.0026 65.5 17ZM57.08 67H21.5L21.61 66.89L15.12 60.4L32.8 42.72L57.08 67ZM13 62.52L17.48 67H8.48L13 62.52ZM3 65.52V33L20.62 50.65L4.3 67C3.93777 66.9513 3.60578 66.772 3.36641 66.4958C3.12703 66.2196 2.99674 65.8655 3 65.5V65.52ZM65.5 67H61.33L53.56 59.23L67 45.8V65.5C67 65.8978 66.842 66.2794 66.5607 66.5607C66.2794 66.842 65.8978 67 65.5 67Z" fill="#286EB7"/>
<path d="M50 1.52001C47.6522 1.51701 45.344 2.12501 43.3024 3.28423C41.2607 4.44345 39.5558 6.114 38.3553 8.13166C37.1548 10.1493 36.5 12.4447 36.4552 14.792C36.4105 17.1394 36.9773 19.458 38.1 21.52L49.3 41.68C49.3738 41.8119 49.4811 41.922 49.611 41.9993C49.7409 42.0765 49.8889 42.1182 50.04 42.12C50.1918 42.1213 50.341 42.081 50.4715 42.0035C50.602 41.9259 50.7087 41.814 50.78 41.68L62 21.48C63.1141 19.4114 63.6707 17.0885 63.6151 14.7397C63.5596 12.3908 62.8938 10.0969 61.6832 8.08325C60.4726 6.06963 58.7589 4.40568 56.7105 3.25495C54.6621 2.10422 52.3495 1.50631 50 1.52001Z" fill="#E0E6EA"/>
<path d="M50 43.62C49.5898 43.6113 49.1891 43.495 48.8381 43.2826C48.487 43.0702 48.198 42.7693 48 42.41L36.82 22.21C35.5989 19.9245 34.9906 17.3617 35.0546 14.7712C35.1185 12.1808 35.8524 9.65108 37.1847 7.42862C38.517 5.20616 40.4024 3.36674 42.6571 2.08962C44.9117 0.812502 47.4588 0.141235 50.05 0.141235C52.6412 0.141235 55.1883 0.812502 57.4429 2.08962C59.6976 3.36674 61.5829 5.20616 62.9153 7.42862C64.2476 9.65108 64.9815 12.1808 65.0454 14.7712C65.1093 17.3617 64.5011 19.9245 63.28 22.21L52.1 42.41C51.8938 42.7842 51.589 43.0947 51.2188 43.308C50.8487 43.5213 50.4271 43.6292 50 43.62ZM50 2.99998C47.9144 2.9968 45.8639 3.53726 44.0509 4.56805C42.2378 5.59884 40.7246 7.08438 39.6607 8.87819C38.5967 10.672 38.0186 12.7122 37.9834 14.7975C37.9482 16.8828 38.4571 18.9413 39.46 20.77L50 39.92L60.6 20.75C61.6005 18.9174 62.1055 16.8555 62.0652 14.7681C62.0248 12.6806 61.4406 10.6397 60.3701 8.84719C59.2996 7.05463 57.78 5.5724 55.9613 4.54693C54.1426 3.52146 52.0878 2.98825 50 2.99998Z" fill="#286EB7"/>
<path d="M50.04 21.82C53.4476 21.82 56.21 19.0576 56.21 15.65C56.21 12.2424 53.4476 9.47998 50.04 9.47998C46.6324 9.47998 43.87 12.2424 43.87 15.65C43.87 19.0576 46.6324 21.82 50.04 21.82Z" fill="white"/>
<path d="M50 23.32C48.483 23.32 47.0001 22.8701 45.7388 22.0274C44.4775 21.1846 43.4944 19.9867 42.9139 18.5852C42.3333 17.1837 42.1814 15.6415 42.4774 14.1536C42.7733 12.6658 43.5038 11.2991 44.5765 10.2265C45.6492 9.15381 47.0158 8.42331 48.5037 8.12736C49.9915 7.83141 51.5337 7.9833 52.9352 8.56383C54.3367 9.14435 55.5346 10.1274 56.3774 11.3888C57.2202 12.6501 57.67 14.133 57.67 15.65C57.6674 17.6834 56.8584 19.6327 55.4206 21.0706C53.9828 22.5084 52.0334 23.3173 50 23.32ZM50 11C49.0764 11 48.1735 11.2739 47.4055 11.787C46.6375 12.3002 46.039 13.0295 45.6855 13.8829C45.332 14.7362 45.2396 15.6752 45.4198 16.5811C45.5999 17.4869 46.0447 18.3191 46.6978 18.9722C47.3509 19.6253 48.1831 20.0701 49.0889 20.2503C49.9948 20.4304 50.9338 20.338 51.7872 19.9845C52.6405 19.631 53.3698 19.0325 53.883 18.2645C54.3961 17.4965 54.67 16.5936 54.67 15.67C54.67 14.4314 54.178 13.2436 53.3022 12.3678C52.4264 11.492 51.2386 11 50 11Z" fill="#286EB7"/>
</g>
<defs>
<clipPath id="clip0">
<rect width="70" height="70" fill="white"/>
</clipPath>
</defs>
</svg>
