<svg width="70" height="70" viewBox="0 0 70 70" fill="none" xmlns="http://www.w3.org/2000/svg">
<g clip-path="url(#clip0)">
<path d="M39.53 36.63V31.31C39.53 30.5143 39.214 29.7513 38.6514 29.1887C38.0887 28.6261 37.3257 28.31 36.53 28.31H4.53003C3.73438 28.31 2.97132 28.6261 2.40871 29.1887C1.8461 29.7513 1.53003 30.5143 1.53003 31.31V38.71C1.53003 39.5056 1.8461 40.2687 2.40871 40.8313C2.97132 41.3939 3.73438 41.71 4.53003 41.71C3.73438 41.71 2.97132 42.0261 2.40871 42.5887C1.8461 43.1513 1.53003 43.9143 1.53003 44.71V52.11C1.53003 52.9056 1.8461 53.6687 2.40871 54.2313C2.97132 54.7939 3.73438 55.11 4.53003 55.11C3.73438 55.11 2.97132 55.4261 2.40871 55.9887C1.8461 56.5513 1.53003 57.3144 1.53003 58.11V65.51C1.53003 66.3057 1.8461 67.0687 2.40871 67.6313C2.97132 68.1939 3.73438 68.51 4.53003 68.51H36.53C37.3257 68.51 38.0887 68.1939 38.6514 67.6313C39.214 67.0687 39.53 66.3057 39.53 65.51V64.44L33.64 55.11L34.94 41.71L39.53 36.63Z" fill="#E0E6EA"/>
<path d="M68.48 50.81C68.478 54.3063 67.4394 57.7236 65.4955 60.6298C63.5516 63.5359 60.7897 65.8004 57.5589 67.1371C54.3281 68.4737 50.7736 68.8224 47.3447 68.1391C43.9158 67.4557 40.7664 65.7711 38.2948 63.2981C35.8232 60.8251 34.1404 57.6748 33.459 54.2455C32.7776 50.8162 33.1283 47.2619 34.4668 44.0318C35.8052 40.8018 38.0713 38.0412 40.9786 36.0989C43.8858 34.1567 47.3037 33.12 50.8 33.12C53.1226 33.12 55.4225 33.5776 57.5682 34.4668C59.7138 35.3559 61.6633 36.6591 63.3052 38.3019C64.9471 39.9447 66.2491 41.8949 67.1371 44.0411C68.025 46.1873 68.4813 48.4874 68.48 50.81Z" fill="white"/>
<path d="M50.8 70C46.8074 70.0064 42.9124 68.7668 39.658 66.4539C36.4036 64.141 33.9521 60.8701 32.6454 57.0975C31.3387 53.3248 31.2419 49.2384 32.3684 45.4081C33.495 41.5777 35.7888 38.1944 38.93 35.73C42.3062 33.0539 46.4918 31.6046 50.8 31.62C55.8895 31.62 60.7705 33.6418 64.3694 37.2406C67.9682 40.8394 69.99 45.7205 69.99 50.81C69.99 55.8995 67.9682 60.7805 64.3694 64.3794C60.7705 67.9782 55.8895 70 50.8 70ZM50.8 34.63C46.5087 34.6326 42.3937 36.3378 39.3584 39.3713C36.323 42.4048 34.6153 46.5187 34.61 50.81C34.61 54.0121 35.5595 57.1422 37.3385 59.8047C39.1175 62.4671 41.646 64.5422 44.6043 65.7676C47.5627 66.993 50.8179 67.3136 53.9585 66.6889C57.099 66.0642 59.9838 64.5223 62.248 62.2581C64.5123 59.9938 66.0542 57.1091 66.6789 53.9685C67.3036 50.828 66.983 47.5727 65.7576 44.6144C64.5322 41.656 62.4571 39.1275 59.7947 37.3485C57.1322 35.5695 54.0021 34.62 50.8 34.62V34.63Z" fill="#286EB7"/>
<path d="M46.17 60.19C45.7722 60.19 45.3906 60.032 45.1093 59.7507C44.828 59.4693 44.67 59.0878 44.67 58.69V42.93C44.67 42.5322 44.828 42.1506 45.1093 41.8693C45.3906 41.588 45.7722 41.43 46.17 41.43C46.5678 41.43 46.9493 41.588 47.2306 41.8693C47.5119 42.1506 47.67 42.5322 47.67 42.93V58.69C47.67 59.0878 47.5119 59.4693 47.2306 59.7507C46.9493 60.032 46.5678 60.19 46.17 60.19Z" fill="#286EB7"/>
<path d="M54.61 56.88H43.71C43.3122 56.88 42.9307 56.722 42.6494 56.4407C42.3681 56.1594 42.21 55.7778 42.21 55.38C42.21 54.9822 42.3681 54.6006 42.6494 54.3193C42.9307 54.038 43.3122 53.88 43.71 53.88H54.61C55.0078 53.88 55.3894 54.038 55.6707 54.3193C55.952 54.6006 56.11 54.9822 56.11 55.38C56.11 55.7778 55.952 56.1594 55.6707 56.4407C55.3894 56.722 55.0078 56.88 54.61 56.88Z" fill="#286EB7"/>
<path d="M54.06 52.07H46.17C45.7722 52.07 45.3906 51.912 45.1093 51.6307C44.828 51.3493 44.67 50.9678 44.67 50.57V42.93C44.67 42.5322 44.828 42.1506 45.1093 41.8693C45.3906 41.588 45.7722 41.43 46.17 41.43H54.06C55.4709 41.43 56.8241 41.9905 57.8218 42.9882C58.8195 43.9859 59.38 45.339 59.38 46.75C59.38 48.1609 58.8195 49.5141 57.8218 50.5118C56.8241 51.5095 55.4709 52.07 54.06 52.07ZM47.67 49.07H54.06C54.6753 49.07 55.2654 48.8256 55.7005 48.3905C56.1356 47.9554 56.38 47.3653 56.38 46.75C56.38 46.1347 56.1356 45.5446 55.7005 45.1095C55.2654 44.6744 54.6753 44.43 54.06 44.43H47.67V49.07Z" fill="#286EB7"/>
<path d="M39.7 1.51001H7.70001C6.04316 1.51001 4.70001 2.85316 4.70001 4.51001V11.91C4.70001 13.5669 6.04316 14.91 7.70001 14.91H39.7C41.3569 14.91 42.7 13.5669 42.7 11.91V4.51001C42.7 2.85316 41.3569 1.51001 39.7 1.51001Z" fill="#E0E6EA"/>
<path d="M39.7 16.41H7.70001C6.50735 16.4074 5.36429 15.9324 4.52095 15.0891C3.67761 14.2457 3.20265 13.1027 3.20001 11.91V4.51C3.20001 3.3156 3.6738 2.16998 4.51742 1.32448C5.36105 0.478977 6.50562 0.00264833 7.70001 0L39.7 0C40.8927 0.00264157 42.0357 0.477596 42.8791 1.32094C43.7224 2.16428 44.1974 3.30734 44.2 4.5V11.9C44.2 13.0944 43.7262 14.24 42.8826 15.0855C42.039 15.931 40.8944 16.4074 39.7 16.41ZM7.70001 3C7.30219 3 6.92066 3.15804 6.63935 3.43934C6.35805 3.72064 6.20001 4.10218 6.20001 4.5V11.9C6.20001 12.2978 6.35805 12.6794 6.63935 12.9607C6.92066 13.242 7.30219 13.4 7.70001 13.4H39.7C40.0978 13.4 40.4794 13.242 40.7607 12.9607C41.042 12.6794 41.2 12.2978 41.2 11.9V4.51C41.2013 4.31218 41.1635 4.11605 41.0887 3.9329C41.0139 3.74976 40.9036 3.58322 40.7642 3.44287C40.6248 3.30252 40.459 3.19114 40.2764 3.11513C40.0937 3.03912 39.8978 3 39.7 3H7.70001Z" fill="#286EB7"/>
<path d="M47.8 14.91H15.8C14.1431 14.91 12.8 16.2531 12.8 17.91V25.31C12.8 26.9668 14.1431 28.31 15.8 28.31H47.8C49.4568 28.31 50.8 26.9668 50.8 25.31V17.91C50.8 16.2531 49.4568 14.91 47.8 14.91Z" fill="#E0E6EA"/>
<path d="M47.8 29.81H15.8C14.6073 29.8073 13.4643 29.3324 12.6209 28.489C11.7776 27.6457 11.3026 26.5026 11.3 25.31V17.91C11.3026 16.7173 11.7776 15.5743 12.6209 14.7309C13.4643 13.8876 14.6073 13.4126 15.8 13.41H47.8C48.9926 13.4126 50.1357 13.8876 50.979 14.7309C51.8224 15.5743 52.2973 16.7173 52.3 17.91V25.31C52.2973 26.5026 51.8224 27.6457 50.979 28.489C50.1357 29.3324 48.9926 29.8073 47.8 29.81ZM15.8 16.41C15.4022 16.41 15.0206 16.568 14.7393 16.8493C14.458 17.1306 14.3 17.5121 14.3 17.91V25.31C14.3 25.7078 14.458 26.0893 14.7393 26.3706C15.0206 26.6519 15.4022 26.81 15.8 26.81H47.8C48.1978 26.81 48.5793 26.6519 48.8606 26.3706C49.142 26.0893 49.3 25.7078 49.3 25.31V17.91C49.3 17.5121 49.142 17.1306 48.8606 16.8493C48.5793 16.568 48.1978 16.41 47.8 16.41H15.8Z" fill="#286EB7"/>
<path d="M41 36.63V31.31C40.9974 30.1173 40.5224 28.9743 39.6791 28.1309C38.8357 27.2876 37.6927 26.8126 36.5 26.81H4.5C3.30734 26.8126 2.16428 27.2876 1.32094 28.1309C0.477596 28.9743 0.00264157 30.1173 0 31.31L0 38.71C0.00280056 39.8208 0.420017 40.8906 1.17 41.71C0.420017 42.5294 0.00280056 43.5992 0 44.71L0 52.11C0.00280056 53.2208 0.420017 54.2906 1.17 55.11C0.420017 55.9294 0.00280056 56.9992 0 58.11L0 65.51C0.00262062 66.1023 0.121872 66.6882 0.350945 67.2344C0.580018 67.7806 0.914427 68.2763 1.33508 68.6932C1.75573 69.1101 2.25438 69.4401 2.80257 69.6644C3.35075 69.8886 3.93774 70.0026 4.53 70H36.53C37.7227 69.9974 38.8657 69.5224 39.7091 68.6791C40.5524 67.8357 41.0274 66.6927 41.03 65.5V64.44H38V65.51C38 65.9078 37.842 66.2894 37.5607 66.5707C37.2794 66.852 36.8978 67.01 36.5 67.01H4.5C4.10218 67.01 3.72064 66.852 3.43934 66.5707C3.15804 66.2894 3 65.9078 3 65.51V58.11C3 57.7122 3.15804 57.3306 3.43934 57.0493C3.72064 56.768 4.10218 56.61 4.5 56.61H33.64V53.61H4.53C4.33051 53.614 4.13222 53.5781 3.94676 53.5045C3.76129 53.431 3.59237 53.3211 3.44989 53.1814C3.30741 53.0417 3.19423 52.875 3.11698 52.691C3.03973 52.5071 2.99996 52.3095 3 52.11V44.71C3 44.3122 3.15804 43.9306 3.43934 43.6493C3.72064 43.368 4.10218 43.21 4.5 43.21H34.94V40.21H4.53C4.33051 40.214 4.13222 40.1781 3.94676 40.1045C3.76129 40.031 3.59237 39.9211 3.44989 39.7814C3.30741 39.6417 3.19423 39.475 3.11698 39.291C3.03973 39.1071 2.99996 38.9095 3 38.71V31.31C3 30.9122 3.15804 30.5306 3.43934 30.2493C3.72064 29.968 4.10218 29.81 4.5 29.81H36.5C36.8978 29.81 37.2794 29.968 37.5607 30.2493C37.842 30.5306 38 30.9122 38 31.31V36.63H41Z" fill="#286EB7"/>
</g>
<defs>
<clipPath id="clip0">
<rect width="70" height="70" fill="white"/>
</clipPath>
</defs>
</svg>
