<svg width="20" height="20" viewBox="0 0 20 20" fill="none" xmlns="http://www.w3.org/2000/svg">
<path fill-rule="evenodd" clip-rule="evenodd" d="M18 10C18 14.4183 14.4183 18 10 18C5.58172 18 2 14.4183 2 10C2 5.58172 5.58172 2 10 2C14.4183 2 18 5.58172 18 10ZM20 10C20 15.5228 15.5228 20 10 20C4.47715 20 0 15.5228 0 10C0 4.47715 4.47715 0 10 0C15.5228 0 20 4.47715 20 10ZM11 5.83333C11 5.28105 10.5523 4.83333 10 4.83333C9.44771 4.83333 9 5.28105 9 5.83333V10C9 10.3148 9.14819 10.6111 9.4 10.8L12.7333 13.3C13.1752 13.6314 13.802 13.5418 14.1333 13.1C14.4647 12.6582 14.3752 12.0314 13.9333 11.7L11 9.5V5.83333Z" fill="#8C98A3"/>
</svg>
