<svg width="80" height="80" xmlns="http://www.w3.org/2000/svg"><circle cx="40" cy="40" r="40"/><path fill-rule="evenodd" clip-rule="evenodd" d="M40 19c-4.4183 0-8 3.5817-8 8v10c0 4.4183 3.5817 8 8 8s8-3.5817 8-8V27c0-4.4183-3.5817-8-8-8zm-5 8c0-2.7614 2.2386-5 5-5s5 2.2386 5 5v10c0 2.7614-2.2386 5-5 5s-5-2.2386-5-5V27zm-6 8.5c0-.8284-.6716-1.5-1.5-1.5s-1.5.6716-1.5 1.5V37c0 7.2252 5.4734 13.1721 12.5 13.9206V57.5H35c-.8284 0-1.5.6716-1.5 1.5s.6716 1.5 1.5 1.5h10c.8284 0 1.5-.6716 1.5-1.5s-.6716-1.5-1.5-1.5h-3.5v-6.5794C48.5266 50.1721 54 44.2252 54 37v-1.5c0-.8284-.6716-1.5-1.5-1.5s-1.5.6716-1.5 1.5V37c0 6.0751-4.9249 11-11 11s-11-4.9249-11-11v-1.5z" fill="currentColor"/></svg>