<svg width="70" height="70" viewBox="0 0 70 70" fill="none" xmlns="http://www.w3.org/2000/svg">
<g clip-path="url(#clip0)">
<path d="M48.5 59.93H4.5C3.70435 59.93 2.94129 59.6139 2.37868 59.0513C1.81607 58.4887 1.5 57.7257 1.5 56.93V4.5C1.5 3.70435 1.81607 2.94129 2.37868 2.37868C2.94129 1.81607 3.70435 1.5 4.5 1.5H38.43L38.81 14.56H51.5V56.93C51.5 57.7257 51.1839 58.4887 50.6213 59.0513C50.0587 59.6139 49.2957 59.93 48.5 59.93Z" fill="#E0E6EA"/>
<path d="M31.94 53.22C37.1536 53.22 41.38 48.9935 41.38 43.78C41.38 38.5664 37.1536 34.34 31.94 34.34C26.7264 34.34 22.5 38.5664 22.5 43.78C22.5 48.9935 26.7264 53.22 31.94 53.22Z" fill="white"/>
<path d="M31.94 54.72C29.7763 54.72 27.6611 54.0784 25.8621 52.8762C24.063 51.6741 22.6608 49.9656 21.8328 47.9665C21.0047 45.9675 20.7881 43.7678 21.2102 41.6457C21.6323 39.5235 22.6743 37.5742 24.2043 36.0442C25.7342 34.5142 27.6836 33.4723 29.8057 33.0502C31.9279 32.6281 34.1275 32.8447 36.1266 33.6727C38.1256 34.5008 39.8342 35.903 41.0363 37.702C42.2384 39.5011 42.88 41.6162 42.88 43.78C42.8643 46.6766 41.7066 49.4501 39.6583 51.4983C37.6101 53.5466 34.8366 54.7042 31.94 54.72ZM31.94 35.84C30.3696 35.84 28.8345 36.3056 27.5288 37.1781C26.2231 38.0506 25.2054 39.2906 24.6044 40.7415C24.0034 42.1923 23.8462 43.7888 24.1526 45.329C24.4589 46.8692 25.2151 48.284 26.3256 49.3944C27.436 50.5048 28.8508 51.261 30.391 51.5674C31.9312 51.8738 33.5277 51.7165 34.9785 51.1156C36.4294 50.5146 37.6694 49.4969 38.5419 48.1912C39.4143 46.8855 39.88 45.3504 39.88 43.78C39.8774 41.675 39.04 39.6569 37.5515 38.1685C36.063 36.68 34.045 35.8426 31.94 35.84Z" fill="#286EB7"/>
<path d="M65.5 8.58002H57.83C57.4322 8.58002 57.0506 8.73805 56.7693 9.01936C56.488 9.30066 56.33 9.68219 56.33 10.08C56.33 10.4778 56.488 10.8594 56.7693 11.1407C57.0506 11.422 57.4322 11.58 57.83 11.58H65.5C65.8978 11.58 66.2794 11.7381 66.5607 12.0194C66.842 12.3007 67 12.6822 67 13.08V65.5C67 65.8978 66.842 66.2794 66.5607 66.5607C66.2794 66.842 65.8978 67 65.5 67H21.5C21.1022 67 20.7206 66.842 20.4393 66.5607C20.158 66.2794 20 65.8978 20 65.5V64.94C20 64.5422 19.842 64.1607 19.5607 63.8794C19.2794 63.5981 18.8978 63.44 18.5 63.44C18.1022 63.44 17.7206 63.5981 17.4393 63.8794C17.158 64.1607 17 64.5422 17 64.94V65.5C17.0026 66.6927 17.4776 67.8357 18.3209 68.6791C19.1643 69.5224 20.3073 69.9974 21.5 70H65.5C66.6927 69.9974 67.8357 69.5224 68.6791 68.6791C69.5224 67.8357 69.9974 66.6927 70 65.5V13.08C69.9974 11.8874 69.5224 10.7443 68.6791 9.90095C67.8357 9.05761 66.6927 8.58266 65.5 8.58002Z" fill="#286EB7"/>
<path d="M53 56.92V14L39 0H4.5C3.30734 0.00264157 2.16428 0.477596 1.32094 1.32094C0.477596 2.16428 0.00264157 3.30734 0 4.5L0 56.92C0 58.1135 0.474106 59.2581 1.31802 60.102C2.16193 60.9459 3.30653 61.42 4.5 61.42H48.5C49.0913 61.4213 49.6771 61.3058 50.2236 61.0801C50.7702 60.8545 51.2668 60.523 51.6849 60.1049C52.103 59.6868 52.4345 59.1902 52.6601 58.6436C52.8858 58.0971 53.0013 57.5113 53 56.92ZM39.93 5.12L48.8 14H41.43C41.0322 14 40.6506 13.842 40.3693 13.5607C40.088 13.2794 39.93 12.8978 39.93 12.5V5.12ZM3 56.92V4.5C3 4.10218 3.15804 3.72064 3.43934 3.43934C3.72064 3.15804 4.10218 3 4.5 3H36.93V12.49C36.93 13.6835 37.4041 14.8281 38.248 15.672C39.0919 16.5159 40.2365 16.99 41.43 16.99H50V56.92C50 57.3178 49.842 57.6994 49.5607 57.9807C49.2794 58.262 48.8978 58.42 48.5 58.42H4.5C4.10218 58.42 3.72064 58.262 3.43934 57.9807C3.15804 57.6994 3 57.3178 3 56.92Z" fill="#286EB7"/>
<path d="M43.38 20.54H8.75C8.35218 20.54 7.97064 20.6981 7.68934 20.9794C7.40804 21.2607 7.25 21.6422 7.25 22.04C7.25 22.4379 7.40804 22.8194 7.68934 23.1007C7.97064 23.382 8.35218 23.54 8.75 23.54H43.38C43.7778 23.54 44.1594 23.382 44.4407 23.1007C44.722 22.8194 44.88 22.4379 44.88 22.04C44.88 21.6422 44.722 21.2607 44.4407 20.9794C44.1594 20.6981 43.7778 20.54 43.38 20.54Z" fill="#286EB7"/>
<path d="M8.75 13.17H20.2C20.5978 13.17 20.9794 13.0119 21.2607 12.7306C21.542 12.4493 21.7 12.0678 21.7 11.67C21.7 11.2722 21.542 10.8906 21.2607 10.6093C20.9794 10.328 20.5978 10.17 20.2 10.17H8.75C8.35218 10.17 7.97064 10.328 7.68934 10.6093C7.40804 10.8906 7.25 11.2722 7.25 11.67C7.25 12.0678 7.40804 12.4493 7.68934 12.7306C7.97064 13.0119 8.35218 13.17 8.75 13.17Z" fill="#286EB7"/>
<path d="M43.38 26.17H8.75C8.35218 26.17 7.97064 26.3281 7.68934 26.6094C7.40804 26.8907 7.25 27.2722 7.25 27.67C7.25 28.0679 7.40804 28.4494 7.68934 28.7307C7.97064 29.012 8.35218 29.17 8.75 29.17H43.38C43.7778 29.17 44.1594 29.012 44.4407 28.7307C44.722 28.4494 44.88 28.0679 44.88 27.67C44.88 27.2722 44.722 26.8907 44.4407 26.6094C44.1594 26.3281 43.7778 26.17 43.38 26.17Z" fill="#286EB7"/>
<path d="M41.3899 34.51L31.8899 44.51L28.8899 41.77C28.7482 41.6174 28.5763 41.4959 28.3851 41.4133C28.1939 41.3308 27.9876 41.2889 27.7794 41.2905C27.5711 41.292 27.3655 41.3369 27.1755 41.4223C26.9856 41.5077 26.8155 41.6317 26.6761 41.7864C26.5367 41.9412 26.431 42.1232 26.3659 42.321C26.3007 42.5188 26.2774 42.7281 26.2975 42.9353C26.3177 43.1426 26.3807 43.3435 26.4827 43.525C26.5847 43.7066 26.7234 43.865 26.8899 43.99L30.9999 47.71C31.2732 47.9597 31.6297 48.0987 31.9999 48.1C32.2039 48.0994 32.4057 48.0574 32.593 47.9766C32.7804 47.8958 32.9494 47.7779 33.0899 47.63L43.5699 36.57C43.8333 36.2792 43.9723 35.8968 43.9571 35.5047C43.9418 35.1127 43.7736 34.7422 43.4884 34.4727C43.2033 34.2033 42.8239 34.0563 42.4316 34.0632C42.0393 34.0702 41.6654 34.2306 41.3899 34.51Z" fill="#286EB7"/>
</g>
<defs>
<clipPath id="clip0">
<rect width="70" height="70" fill="white"/>
</clipPath>
</defs>
</svg>
