<svg width="70" height="70" viewBox="0 0 70 70" fill="none" xmlns="http://www.w3.org/2000/svg">
<g clip-path="url(#clip0)">
<path d="M11.9399 10.93C11.9399 10.93 32.1299 32.38 58.2299 10.93C58.2299 10.93 36.8799 -8 11.9399 10.93Z" fill="#E0E6EA"/>
<path d="M58.2299 59.07C58.2299 59.07 38.0499 37.62 11.9399 59.07C11.9399 59.07 33.2999 78 58.2299 59.07Z" fill="#E0E6EA"/>
<path d="M35.09 0.109998C28.1761 0.104069 21.4159 2.14948 15.665 5.98735C9.91412 9.82521 5.43113 15.283 2.78348 21.6698C0.135827 28.0566 -0.557459 35.0854 0.791377 41.8665C2.14021 48.6475 5.47052 54.8759 10.3608 59.7634C15.251 64.6508 21.4814 67.9776 28.2632 69.3225C35.045 70.6675 42.0734 69.9702 48.4587 67.3188C54.844 64.6675 60.2992 60.1814 64.1338 54.4283C67.9683 48.6753 70.0099 41.9139 70 35C69.9709 25.7521 66.283 16.8915 59.7418 10.3541C53.2006 3.81662 44.3379 0.133733 35.09 0.109998ZM67 33.54H54.4C54.2195 28.1798 53.011 22.9042 50.84 18C53.4825 16.6511 55.9423 14.9709 58.16 13C63.4953 18.5512 66.6362 25.8491 67 33.54ZM15.82 36.54C15.9931 41.568 17.0702 46.5238 19 51.17C16.2383 52.5679 13.6811 54.3377 11.4 56.43C6.42947 50.9608 3.53169 43.9234 3.20998 36.54H15.82ZM36.59 4.42C40.7822 7.71677 44.2538 11.8384 46.79 16.53C43.5331 17.8131 40.0868 18.5497 36.59 18.71V4.42ZM40.22 3.53C46.0666 4.48489 51.5312 7.05096 56 10.94C54.0346 12.6512 51.8647 14.1124 49.54 15.29C47.1663 10.8411 44.009 6.85725 40.22 3.53ZM33.59 4.41V18.71C30.0929 18.5519 26.6462 17.8152 23.39 16.53C25.9215 11.8324 29.3937 7.7066 33.59 4.41ZM20.59 15.29C18.2667 14.1099 16.0971 12.649 14.13 10.94C18.6238 7.03589 24.1216 4.46888 30 3.53C26.1966 6.85378 23.0256 10.8379 20.64 15.29H20.59ZM33.59 21.71V33.54H18.77C18.952 28.6081 20.0684 23.7556 22.06 19.24C25.7355 20.711 29.6344 21.5462 33.59 21.71ZM33.59 36.54V47.2C29.513 47.464 25.5051 48.3825 21.72 49.92C19.9554 45.6693 18.9599 41.1389 18.78 36.54H33.59ZM23 52.64C26.387 51.2777 29.9676 50.4576 33.61 50.21V65.55C29.1772 62.0688 25.5564 57.6632 23 52.64ZM20.26 53.9C22.6959 58.73 26.0482 63.0401 30.13 66.59C23.9223 65.6301 18.1404 62.8454 13.52 58.59C15.5487 56.7347 17.8153 55.1576 20.26 53.9ZM36.59 65.55V50.2C40.2369 50.4244 43.8234 51.2383 47.21 52.61C44.6532 57.6443 41.0289 62.0603 36.59 65.55ZM49.93 53.87C52.371 55.1366 54.6339 56.7203 56.66 58.58C52.0294 62.853 46.2282 65.6457 40 66.6C44.1032 63.0398 47.4757 58.7164 49.93 53.87ZM36.59 47.2V36.54H51.4C51.215 41.1286 50.2197 45.6482 48.46 49.89C44.6798 48.3416 40.6684 47.4325 36.59 47.2ZM36.59 33.54V21.71C40.5422 21.5451 44.4376 20.7099 48.11 19.24C50.1016 23.7556 51.218 28.6081 51.4 33.54H36.59ZM12 13C14.2177 14.9709 16.6775 16.6511 19.32 18C17.149 22.9042 15.9404 28.1798 15.76 33.54H3.20998C3.56013 25.8558 6.68288 18.5587 12 13ZM58.77 56.45C56.4955 54.343 53.9415 52.5595 51.18 51.15C53.1232 46.5133 54.214 41.564 54.4 36.54H67C66.6643 43.9338 63.7528 50.9772 58.77 56.45Z" fill="#286EB7"/>
</g>
<defs>
<clipPath id="clip0">
<rect width="70" height="70" fill="white"/>
</clipPath>
</defs>
</svg>
