<svg width="20" height="20" xmlns="http://www.w3.org/2000/svg"><path fill-rule="evenodd" clip-rule="evenodd" d="M19.9374 8.88962c-.0316-.28114-.3594-.49241-.6429-.49241-.9164 0-1.7296-.53809-2.0707-1.37026-.3484-.85235-.1237-1.84638.5593-2.47287.215-.19653.2411-.52552.0608-.75404-.4691-.59562-1.0022-1.13363-1.5843-1.59992-.2279-.18291-.5624-.15746-.76.0614-.5961.66013-1.6668.90547-2.4941.56026-.861-.36217-1.404-1.23461-1.3508-2.17111.0174-.29416-.1975-.54993-.4908-.58408-.747-.0864-1.50055-.08908-2.24977-.00596-.28993.032-.50492.28174-.49517.57218.03259.92728-.5169 1.78446-1.36934 2.13361-.81746.3339-1.88065.09064-2.47553-.56362-.19661-.2155-.5256-.24199-.75466-.06347-.59935.47022-1.14444 1.00869-1.61781 1.59939-.18462.22964-.15746.5625.05968.76007.69602.63029.92076 1.63295.55917 2.49512-.34522.82198-1.19877 1.35174-2.17593 1.35174-.3171-.0102-.54295.20263-.57762.49091-.08796.75129-.089 1.51674-.00432 2.27414.0314.2824.36918.4918.65576.4918.87082-.0223 1.70688.5169 2.05761 1.3703.34961.8524.12487 1.8458-.55917 2.4728-.21394.1965-.2411.525-.06079.7535.46465.5918.99784 1.1304 1.58201 1.6005.22913.1847.56252.1586.76113-.0602.59831-.6618 1.66894-.9067 2.49302-.5608.86316.361 1.4061 1.2334 1.35297 2.1704-.01734.2943.19869.5505.49077.5842A9.9568 9.9568 0 0 0 9.98795 20c.36595 0 .73185-.0201 1.09775-.0608.29-.032.5049-.2817.4951-.5727-.0335-.9267.5169-1.7839 1.3683-2.1325.8229-.3361 1.8816-.0901 2.4766.5635.1977.215.5244.241.7547.0631a9.94668 9.94668 0 0 0 1.6178-1.5995c.1846-.2291.1586-.5625-.0597-.76-.696-.6303-.9219-1.6331-.5603-2.4947.3399-.811 1.1618-1.3556 2.0458-1.3556l.1237.0032c.2867.0233.5505-.1975.5853-.4902.0881-.752.0891-1.51679.0044-2.27418zm-9.9215 4.46708c-1.83946 0-3.33568-1.4962-3.33568-3.3355 0-1.83934 1.49622-3.33559 3.33568-3.33559 1.8393 0 3.3355 1.49625 3.3355 3.33559 0 1.8393-1.4962 3.3355-3.3355 3.3355z"/></svg>