<svg width="20" height="20" xmlns="http://www.w3.org/2000/svg"><path d="M9.99958 0C4.47746 0 0 4.47746 0 9.99958S4.47746 20 9.99958 20 20 15.5217 20 9.99958 15.5217 0 9.99958 0zm2.08172 15.498c-.5147.2032-.9245.3572-1.2318.4639-.3064.1067-.6628.16-1.06834.16-.62306 0-1.10814-.1524-1.45354-.4563-.3454-.3039-.51725-.6891-.51725-1.1572 0-.1821.0127-.3683.0381-.5579.02624-.1897.06772-.403.12444-.6426l.64423-2.2755c.05672-.2184.10582-.4258.14476-.6189.03895-.1947.05757-.3733.05757-.53583 0-.28952-.0601-.4927-.17947-.60698-.12106-.11429-.34878-.17016-.68825-.17016-.16593 0-.33694.02455-.51217.07619-.17355.05333-.32424.10159-.44783.14899l.17015-.70095c.42159-.17185.8254-.31915 1.21059-.44106.38518-.12359.7492-.18455 1.09206-.18455.61885 0 1.09625.15069 1.43235.44868.3344.29884.5029.68741.5029 1.16487 0 .09905-.0119.27344-.0347.5223-.0229.2498-.0661.4775-.1287.6866l-.6408 2.2688c-.0525.182-.0991.3902-.1414.623-.0415.2328-.0618.4106-.0618.53 0 .3014.0669.5071.2023.6163.1338.1092.3683.1642.7001.1642.1566 0 .3319-.0279.53-.0821.1964-.0542.3386-.1024.4283-.1439l-.1718.7001zm-.1135-9.2089c-.2988.27767-.6586.41651-1.0793.41651-.4199 0-.7823-.13884-1.08363-.41651-.29968-.27767-.45122-.61545-.45122-1.00995 0-.39365.15238-.73227.45122-1.01248.30133-.28106.66373-.42074 1.08363-.42074.4207 0 .7813.13968 1.0793.42074.2989.28021.4487.61883.4487 1.01248 0 .39535-.1498.73228-.4487 1.00995z"/></svg>