<svg width="70" height="70" viewBox="0 0 70 70" fill="none" xmlns="http://www.w3.org/2000/svg">
<g clip-path="url(#clip0)">
<path d="M63.12 11.0399L48.89 15.1599L35 19.1899L6.88 11.0399L35 1.68994L63.12 11.0399Z" fill="#E0E6EA" stroke="#286EB7" stroke-width="3" stroke-linecap="round" stroke-linejoin="round"/>
<path d="M61.08 11.3999V18.9299" stroke="#286EB7" stroke-width="3" stroke-miterlimit="10"/>
<path d="M57.86 18.9302H64.31" stroke="#286EB7" stroke-width="3" stroke-miterlimit="10" stroke-linecap="round"/>
<path d="M61.08 24.1401L62.8 28.2501L64.51 32.3701H61.08H57.66L59.37 28.2501L61.08 24.1401Z" stroke="#286EB7" stroke-width="3" stroke-linejoin="round"/>
<path d="M23.12 44.6201C20.2668 44.624 17.4424 45.1918 14.8094 46.291C12.1763 47.3901 9.7865 48.9989 7.77732 51.0248C5.76814 53.0507 4.17923 55.4538 3.10195 58.0959C2.02467 60.738 1.48026 63.5669 1.50003 66.4201C1.50266 66.9736 1.7237 67.5037 2.11508 67.8951C2.50647 68.2865 3.03654 68.5075 3.59003 68.5101H66.41C66.9635 68.5075 67.4936 68.2865 67.885 67.8951C68.2764 67.5037 68.4974 66.9736 68.5 66.4201C68.5 63.5578 67.9361 60.7235 66.8404 58.0791C65.7447 55.4348 64.1388 53.0322 62.1144 51.0087C60.0899 48.9852 57.6866 47.3804 55.0418 46.2859C52.3969 45.1914 49.5624 44.6288 46.7 44.6301L35 57.1701L23.12 44.6201Z" fill="#E0E6EA" stroke="#286EB7" stroke-width="3" stroke-linejoin="round"/>
<path d="M46.16 24.8C46.6806 26.1597 46.9451 27.6041 46.94 29.06C46.9372 30.8112 46.5493 32.5403 45.8037 34.1247C45.0581 35.7092 43.9731 37.1103 42.6256 38.2287C41.2781 39.3471 39.7011 40.1554 38.0064 40.5963C36.3116 41.0372 34.5407 41.0999 32.819 40.78C31.0973 40.4602 29.4671 39.7655 28.0438 38.7453C26.6206 37.7251 25.4391 36.4043 24.5833 34.8765C23.7274 33.3488 23.2181 31.6515 23.0914 29.9049C22.9646 28.1584 23.2237 26.4053 23.85 24.77" stroke="#286EB7" stroke-width="3" stroke-miterlimit="10"/>
<path d="M15.4399 58.5098H22.3999" stroke="#286EB7" stroke-width="3" stroke-miterlimit="10" stroke-linecap="round"/>
<path d="M20.9399 15.1098L34.9999 19.1898L45.6899 16.0898L49.2699 15.0898L49.0599 23.2498C44.8478 25.8961 39.9744 27.2999 34.9999 27.2999C30.0255 27.2999 25.1521 25.8961 20.9399 23.2498V15.1498" fill="#E0E6EA"/>
<path d="M20.9399 15.1098L34.9999 19.1898L45.6899 16.0898L49.2699 15.0898L49.0599 23.2498C44.8478 25.8961 39.9744 27.2999 34.9999 27.2999C30.0255 27.2999 25.1521 25.8961 20.9399 23.2498V15.1498" stroke="#286EB7" stroke-width="3" stroke-linejoin="round"/>
</g>
<defs>
<clipPath id="clip0">
<rect width="70" height="70" fill="white"/>
</clipPath>
</defs>
</svg>
