<svg width="20" height="20" viewBox="0 0 20 20" fill="none" xmlns="http://www.w3.org/2000/svg">
<path d="M20 15.8868C19.0644 15.5008 15.8908 14.4016 12.94 13.4137C12.7734 13.5849 12.5022 13.8544 12.0685 14.2892C10.6839 15.6789 10.6831 15.6789 10.3196 15.4997C7.77629 14.2738 5.72534 12.22 4.5028 9.67499C4.39341 9.44266 4.45774 9.16528 4.65833 9.00487L7.11372 7.03986C6.10589 4.55808 4.61735 0.967037 4.14261 0C1.90492 0.15389 0.131916 1.94954 0.00732871 4.18896C0 4.26957 0 4.35343 0 4.43621C0 4.51899 0 4.60286 0.00434293 4.68021C0.101245 13.0885 6.88761 19.8849 15.2966 19.9946C15.3984 20 15.4812 20 15.5651 20C15.6489 20 15.7317 20 15.8091 19.9957C18.04 19.873 19.8336 18.1145 20 15.8868Z" fill="#8C98A3"/>
</svg>
