<svg width="70" height="70" viewBox="0 0 70 70" fill="none" xmlns="http://www.w3.org/2000/svg">
<g clip-path="url(#clip0)">
<path d="M35 1.53003L1.63 20.63H68.38L35 1.53003Z" fill="#E0E6EA"/>
<path d="M68.38 22.13H1.62997C1.29946 22.1304 0.97808 22.0216 0.715766 21.8205C0.453452 21.6194 0.264889 21.3373 0.179374 21.0181C0.0938597 20.6988 0.116181 20.3603 0.242871 20.055C0.369561 19.7498 0.593525 19.4949 0.879967 19.33L34.25 0.229988C34.4777 0.0973484 34.7365 0.0274658 35 0.0274658C35.2635 0.0274658 35.5223 0.0973484 35.75 0.229988L69.12 19.33C69.4057 19.4944 69.6293 19.7484 69.7561 20.0527C69.883 20.357 69.9061 20.6946 69.8219 21.0133C69.7376 21.332 69.5508 21.6141 69.2901 21.8159C69.0295 22.0178 68.7096 22.1282 68.38 22.13ZM7.26997 19.13H62.73L35 3.25999L7.26997 19.13Z" fill="#286EB7"/>
<path d="M35 15.99C37.0986 15.99 38.7999 14.2887 38.7999 12.19C38.7999 10.0913 37.0986 8.39001 35 8.39001C32.9013 8.39001 31.2 10.0913 31.2 12.19C31.2 14.2887 32.9013 15.99 35 15.99Z" fill="white"/>
<path d="M35 17.49C33.9517 17.49 32.927 17.1792 32.0554 16.5968C31.1839 16.0144 30.5045 15.1867 30.1034 14.2182C29.7022 13.2498 29.5973 12.1841 29.8018 11.156C30.0063 10.1279 30.5111 9.18357 31.2523 8.44235C31.9935 7.70113 32.9379 7.19636 33.966 6.99186C34.9941 6.78735 36.0597 6.89231 37.0282 7.29346C37.9966 7.6946 38.8244 8.37391 39.4067 9.24549C39.9891 10.1171 40.3 11.1418 40.3 12.19C40.2973 13.5949 39.7381 14.9414 38.7447 15.9348C37.7513 16.9281 36.4048 17.4874 35 17.49ZM35 9.89002C34.5451 9.89002 34.1004 10.0249 33.7221 10.2776C33.3439 10.5304 33.0491 10.8896 32.875 11.3098C32.7009 11.7301 32.6554 12.1926 32.7441 12.6387C32.8329 13.0849 33.0519 13.4947 33.3736 13.8164C33.6953 14.138 34.1051 14.3571 34.5512 14.4458C34.9974 14.5346 35.4599 14.489 35.8801 14.3149C36.3004 14.1409 36.6596 13.8461 36.9123 13.4678C37.1651 13.0896 37.3 12.6449 37.3 12.19C37.3 11.58 37.0576 10.995 36.6263 10.5637C36.195 10.1323 35.61 9.89002 35 9.89002Z" fill="#286EB7"/>
<path d="M68.52 62.5601H1.52002V68.5601H68.52V62.5601Z" fill="#E0E6EA"/>
<path d="M68.52 70.0601H1.52C1.32134 70.0627 1.12413 70.0259 0.939831 69.9517C0.755528 69.8775 0.5878 69.7674 0.446387 69.6278C0.304974 69.4883 0.192693 69.322 0.116063 69.1387C0.0394337 68.9554 -1.76551e-05 68.7587 5.92703e-09 68.5601V62.5601C5.92703e-09 62.1622 0.158035 61.7807 0.43934 61.4994C0.720644 61.2181 1.10218 61.0601 1.5 61.0601H68.5C68.8978 61.0601 69.2794 61.2181 69.5607 61.4994C69.842 61.7807 70 62.1622 70 62.5601V68.5601C70 68.9544 69.8447 69.333 69.5678 69.6137C69.2908 69.8944 68.9143 70.0548 68.52 70.0601ZM3 67.0601H67V64.0601H3V67.0601Z" fill="#286EB7"/>
<path d="M9.20998 31.29V50.83C9.20998 51.2279 9.36802 51.6094 9.64932 51.8907C9.93063 52.172 10.3122 52.33 10.71 52.33C11.1078 52.33 11.4893 52.172 11.7706 51.8907C12.0519 51.6094 12.21 51.2279 12.21 50.83V32H16.21V50.83C16.21 51.2279 16.368 51.6094 16.6493 51.8907C16.9306 52.172 17.3122 52.33 17.71 52.33C18.1078 52.33 18.4893 52.172 18.7706 51.8907C19.0519 51.6094 19.21 51.2279 19.21 50.83V31.29C20.2757 30.7336 21.1689 29.8963 21.7929 28.8686C22.4169 27.841 22.7478 26.6623 22.75 25.46C22.75 25.0622 22.5919 24.6807 22.3106 24.3994C22.0293 24.1181 21.6478 23.96 21.25 23.96C20.8522 23.96 20.4706 24.1181 20.1893 24.3994C19.908 24.6807 19.75 25.0622 19.75 25.46C19.7369 26.4017 19.3542 27.3006 18.6845 27.9628C18.0149 28.625 17.1118 28.9975 16.17 29H12.25C11.3005 29 10.3899 28.6229 9.71854 27.9515C9.04716 27.2801 8.66998 26.3695 8.66998 25.42C8.66998 25.0222 8.51195 24.6407 8.23064 24.3594C7.94934 24.0781 7.56781 23.92 7.16998 23.92C6.77216 23.92 6.39063 24.0781 6.10932 24.3594C5.82802 24.6407 5.66998 25.0222 5.66998 25.42C5.6648 26.6291 5.99232 27.8162 6.61669 28.8515C7.24107 29.8869 8.13823 30.7305 9.20998 31.29Z" fill="#286EB7"/>
<path d="M30 31.29V50.83C30 51.2279 30.1581 51.6094 30.4394 51.8907C30.7207 52.172 31.1022 52.33 31.5 52.33C31.8979 52.33 32.2794 52.172 32.5607 51.8907C32.842 51.6094 33 51.2279 33 50.83V32H37V50.83C37 51.2279 37.1581 51.6094 37.4394 51.8907C37.7207 52.172 38.1022 52.33 38.5 52.33C38.8979 52.33 39.2794 52.172 39.5607 51.8907C39.842 51.6094 40 51.2279 40 50.83V31.29C41.0658 30.7336 41.959 29.8963 42.583 28.8686C43.2069 27.841 43.5379 26.6623 43.54 25.46C43.54 25.0622 43.382 24.6807 43.1007 24.3994C42.8194 24.1181 42.4379 23.96 42.04 23.96C41.6422 23.96 41.2607 24.1181 40.9794 24.3994C40.6981 24.6807 40.54 25.0622 40.54 25.46C40.5297 26.3957 40.1534 27.2901 39.4917 27.9517C38.8301 28.6133 37.9357 28.9896 37 29H33C32.0506 29 31.14 28.6229 30.4686 27.9515C29.7972 27.2801 29.42 26.3695 29.42 25.42C29.42 25.0222 29.262 24.6407 28.9807 24.3594C28.6994 24.0781 28.3179 23.92 27.92 23.92C27.5222 23.92 27.1407 24.0781 26.8594 24.3594C26.5781 24.6407 26.42 25.0222 26.42 25.42C26.4187 26.6332 26.7522 27.8232 27.3838 28.8589C28.0155 29.8947 28.9208 30.7359 30 31.29Z" fill="#286EB7"/>
<path d="M50.7901 31.29V50.83C50.7901 51.2279 50.9481 51.6094 51.2294 51.8907C51.5107 52.172 51.8922 52.33 52.2901 52.33C52.6879 52.33 53.0694 52.172 53.3507 51.8907C53.632 51.6094 53.7901 51.2279 53.7901 50.83V32H57.7901V50.83C57.7901 51.2279 57.9481 51.6094 58.2294 51.8907C58.5107 52.172 58.8922 52.33 59.2901 52.33C59.6879 52.33 60.0694 52.172 60.3507 51.8907C60.632 51.6094 60.7901 51.2279 60.7901 50.83V31.29C61.8558 30.7336 62.749 29.8963 63.373 28.8686C63.9969 27.841 64.3279 26.6623 64.3301 25.46C64.3301 25.0622 64.172 24.6807 63.8907 24.3994C63.6094 24.1181 63.2279 23.96 62.8301 23.96C62.4322 23.96 62.0507 24.1181 61.7694 24.3994C61.4881 24.6807 61.3301 25.0622 61.3301 25.46C61.3195 26.4026 60.9377 27.3029 60.2675 27.9657C59.5972 28.6284 58.6926 29.0001 57.7501 29H53.8301C52.8814 28.9974 51.9723 28.6194 51.3015 27.9486C50.6307 27.2778 50.2527 26.3687 50.2501 25.42C50.2501 25.0222 50.092 24.6407 49.8107 24.3594C49.5294 24.0781 49.1479 23.92 48.7501 23.92C48.3522 23.92 47.9707 24.0781 47.6894 24.3594C47.4081 24.6407 47.2501 25.0222 47.2501 25.42C47.2449 26.6291 47.5724 27.8162 48.1968 28.8515C48.8211 29.8869 49.7183 30.7305 50.7901 31.29Z" fill="#286EB7"/>
<path d="M63.4501 55.17H6.55005C6.15222 55.17 5.77069 55.3281 5.48939 55.6094C5.20808 55.8907 5.05005 56.2722 5.05005 56.67C5.05005 57.0679 5.20808 57.4494 5.48939 57.7307C5.77069 58.012 6.15222 58.17 6.55005 58.17H63.4501C63.8479 58.17 64.2294 58.012 64.5107 57.7307C64.792 57.4494 64.95 57.0679 64.95 56.67C64.95 56.2722 64.792 55.8907 64.5107 55.6094C64.2294 55.3281 63.8479 55.17 63.4501 55.17Z" fill="#286EB7"/>
</g>
<defs>
<clipPath id="clip0">
<rect width="70" height="70" fill="white"/>
</clipPath>
</defs>
</svg>
