<svg width="70" height="70" viewBox="0 0 70 70" fill="none" xmlns="http://www.w3.org/2000/svg">
<g clip-path="url(#clip0)">
<path d="M35 66.8302C49.3318 66.8302 60.95 55.212 60.95 40.8802C60.95 26.5484 49.3318 14.9302 35 14.9302C20.6682 14.9302 9.04999 26.5484 9.04999 40.8802C9.04999 55.212 20.6682 66.8302 35 66.8302Z" fill="#E0E6EA"/>
<path d="M35 68.3302C29.5709 68.3302 24.2637 66.7203 19.7496 63.704C15.2355 60.6878 11.7171 56.4007 9.63951 51.3848C7.56188 46.369 7.01828 40.8497 8.07744 35.525C9.13661 30.2002 11.751 25.3091 15.5899 21.4701C19.4289 17.6312 24.32 15.0168 29.6448 13.9576C34.9696 12.8985 40.4888 13.4421 45.5047 15.5197C50.5205 17.5973 54.8076 21.1157 57.8238 25.6298C60.8401 30.1439 62.45 35.4511 62.45 40.8802C62.4421 48.1579 59.5475 55.1353 54.4013 60.2815C49.2552 65.4277 42.2778 68.3222 35 68.3302ZM35 16.4402C30.1638 16.4402 25.4363 17.8744 21.4153 20.5615C17.3943 23.2485 14.2605 27.0677 12.4102 31.5359C10.5599 36.0041 10.0763 40.9207 11.0205 45.6638C11.9648 50.4069 14.2944 54.7635 17.7148 58.1825C21.1352 61.6015 25.4927 63.9293 30.2362 64.8716C34.9797 65.8139 39.8961 65.3283 44.3635 63.4762C48.831 61.6241 52.6489 58.4887 55.3343 54.4666C58.0197 50.4445 59.452 45.7164 59.45 40.8802C59.4421 34.399 56.8632 28.1857 52.2794 23.6037C47.6955 19.0218 41.4812 16.4455 35 16.4402Z" fill="#286EB7"/>
<path d="M41.08 20.1802H28.92V59.0802H41.08V20.1802Z" fill="white"/>
<path d="M47.38 68.5098C47.38 63.5098 43.86 59.5098 39.53 59.5098H30.47C26.14 59.5098 22.63 63.5098 22.62 68.5098H47.38Z" fill="white"/>
<path d="M47.38 70.0002H22.63C22.2322 70.0002 21.8507 69.8422 21.5693 69.5609C21.288 69.2796 21.13 68.8981 21.13 68.5002C21.13 62.7002 25.32 57.9902 30.47 57.9902H39.53C44.68 57.9902 48.88 62.7002 48.88 68.5002C48.88 68.8981 48.722 69.2796 48.4407 69.5609C48.1594 69.8422 47.7778 70.0002 47.38 70.0002ZM24.25 67.0002H45.75C45.16 63.5702 42.59 61.0002 39.53 61.0002H30.47C27.41 61.0002 24.84 63.5802 24.25 67.0002Z" fill="#286EB7"/>
<path d="M28.92 60.0002C28.5222 60.0002 28.1406 59.8421 27.8593 59.5608C27.578 59.2795 27.42 58.898 27.42 58.5002V20.1802C27.42 19.7824 27.578 19.4008 27.8593 19.1195C28.1406 18.8382 28.5222 18.6802 28.92 18.6802C29.3178 18.6802 29.6993 18.8382 29.9806 19.1195C30.2619 19.4008 30.42 19.7824 30.42 20.1802V58.5102C30.4173 58.9063 30.2581 59.2852 29.9771 59.5644C29.6961 59.8435 29.3161 60.0002 28.92 60.0002Z" fill="#286EB7"/>
<path d="M35 60.0002C34.6022 60.0002 34.2206 59.8421 33.9393 59.5608C33.658 59.2795 33.5 58.898 33.5 58.5002V20.1802C33.5 19.7824 33.658 19.4008 33.9393 19.1195C34.2206 18.8382 34.6022 18.6802 35 18.6802C35.3978 18.6802 35.7794 18.8382 36.0607 19.1195C36.342 19.4008 36.5 19.7824 36.5 20.1802V58.5102C36.4974 58.9063 36.3382 59.2852 36.0571 59.5644C35.7761 59.8435 35.3961 60.0002 35 60.0002Z" fill="#286EB7"/>
<path d="M41.08 60.0002C40.6822 60.0002 40.3007 59.8421 40.0194 59.5608C39.7381 59.2795 39.58 58.898 39.58 58.5002V20.1802C39.58 19.7824 39.7381 19.4008 40.0194 19.1195C40.3007 18.8382 40.6822 18.6802 41.08 18.6802C41.4778 18.6802 41.8594 18.8382 42.1407 19.1195C42.422 19.4008 42.58 19.7824 42.58 20.1802V58.5102C42.5774 58.9063 42.4182 59.2852 42.1372 59.5644C41.8561 59.8435 41.4761 60.0002 41.08 60.0002Z" fill="#286EB7"/>
<path d="M41.48 12.9902H28.53C26.5418 12.9902 24.93 14.5998 24.93 16.5852C24.93 18.5707 26.5418 20.1802 28.53 20.1802H41.48C43.4682 20.1802 45.08 18.5707 45.08 16.5852C45.08 14.5998 43.4682 12.9902 41.48 12.9902Z" fill="white"/>
<path d="M41.48 21.6802H28.48C27.1678 21.6221 25.9286 21.0599 25.0206 20.1108C24.1126 19.1616 23.6058 17.8987 23.6058 16.5852C23.6058 15.2717 24.1126 14.0088 25.0206 13.0597C25.9286 12.1106 27.1678 11.5484 28.48 11.4902H41.48C42.7922 11.5484 44.0314 12.1106 44.9394 13.0597C45.8474 14.0088 46.3542 15.2717 46.3542 16.5852C46.3542 17.8987 45.8474 19.1616 44.9394 20.1108C44.0314 21.0599 42.7922 21.6221 41.48 21.6802ZM28.48 14.4902C27.9494 14.5269 27.4524 14.7636 27.0896 15.1524C26.7267 15.5413 26.5248 16.0533 26.5248 16.5852C26.5248 17.1171 26.7267 17.6292 27.0896 18.018C27.4524 18.4069 27.9494 18.6436 28.48 18.6802H41.48C42.0106 18.6436 42.5075 18.4069 42.8704 18.018C43.2333 17.6292 43.4352 17.1171 43.4352 16.5852C43.4352 16.0533 43.2333 15.5413 42.8704 15.1524C42.5075 14.7636 42.0106 14.5269 41.48 14.4902H28.48Z" fill="#286EB7"/>
<path d="M40.26 4.2599C39.8345 4.26028 39.4137 4.34941 39.0246 4.5216C38.6354 4.69378 38.2865 4.94524 38 5.2599C38.0524 5.04039 38.0793 4.81557 38.08 4.5899C38.1039 4.17134 38.0421 3.7523 37.8983 3.35847C37.7546 2.96463 37.532 2.60429 37.2441 2.29952C36.9562 1.99474 36.6091 1.75194 36.2241 1.586C35.8391 1.42006 35.4243 1.33447 35.005 1.33447C34.5858 1.33447 34.1709 1.42006 33.7859 1.586C33.4009 1.75194 33.0539 1.99474 32.766 2.29952C32.4781 2.60429 32.2555 2.96463 32.1117 3.35847C31.968 3.7523 31.9061 4.17134 31.93 4.5899C31.9282 4.82838 31.9516 5.06638 32 5.2999C31.6591 4.91649 31.2275 4.62464 30.7447 4.45103C30.2619 4.27742 29.7433 4.22758 29.2362 4.30607C28.7292 4.38455 28.2499 4.58887 27.8422 4.90033C27.4345 5.21179 27.1113 5.62047 26.9023 6.08902C26.6932 6.55756 26.6049 7.07104 26.6455 7.5825C26.686 8.09397 26.8541 8.58712 27.1343 9.01688C27.4146 9.44665 27.7981 9.79932 28.2498 10.0427C28.7015 10.286 29.207 10.4123 29.72 10.4099H30.08V12.9999H39.35V10.2699C39.6388 10.3577 39.9383 10.4048 40.24 10.4099C41.0252 10.3651 41.7636 10.0216 42.3037 9.44986C42.8437 8.8781 43.1446 8.1214 43.1446 7.3349C43.1446 6.5484 42.8437 5.7917 42.3037 5.21994C41.7636 4.64819 41.0252 4.3047 40.24 4.2599H40.26Z" fill="white"/>
<path d="M39.37 14.4901H30.1C29.7039 14.4901 29.3239 14.3334 29.0429 14.0543C28.7619 13.7752 28.6027 13.3962 28.6 13.0001V11.7701C27.5336 11.4809 26.6077 10.816 25.9929 9.89788C25.3782 8.97976 25.1161 7.87035 25.2549 6.77419C25.3938 5.67803 25.9242 4.66901 26.7485 3.93316C27.5727 3.19731 28.6352 2.78424 29.74 2.7701C30.0769 2.77088 30.4125 2.81116 30.74 2.8901C31.0786 2.04091 31.6641 1.31278 32.4209 0.799836C33.1776 0.286888 34.0708 0.0126953 34.985 0.0126953C35.8992 0.0126953 36.7924 0.286888 37.5492 0.799836C38.3059 1.31278 38.8914 2.04091 39.23 2.8901C39.5575 2.81098 39.8931 2.7707 40.23 2.7701C41.3809 2.7857 42.4838 3.23407 43.319 4.02598C44.1543 4.81788 44.6608 5.89526 44.7377 7.04369C44.8146 8.19213 44.4563 9.32741 43.734 10.2236C43.0118 11.1198 41.9786 11.7112 40.84 11.8801V13.0001C40.8375 13.391 40.6824 13.7656 40.4079 14.0439C40.1333 14.3222 39.7609 14.4823 39.37 14.4901ZM31.6 11.4901H37.87V10.2701C37.8691 10.035 37.9234 9.8029 38.0287 9.59264C38.134 9.38238 38.2872 9.1998 38.476 9.05966C38.6648 8.91951 38.8839 8.82572 39.1156 8.78584C39.3474 8.74596 39.5852 8.76113 39.81 8.8301C39.9545 8.88159 40.1066 8.90863 40.26 8.9101C40.6561 8.87852 41.0257 8.69889 41.2952 8.407C41.5647 8.11512 41.7144 7.7324 41.7144 7.3351C41.7144 6.9378 41.5647 6.55508 41.2952 6.2632C41.0257 5.97131 40.6561 5.79168 40.26 5.7601C40.0426 5.76126 39.8278 5.80816 39.6297 5.89775C39.4316 5.98734 39.2545 6.11761 39.11 6.2801C38.8868 6.52372 38.5895 6.68683 38.2641 6.74411C37.9387 6.80139 37.6035 6.74964 37.3105 6.59689C37.0175 6.44413 36.7832 6.19893 36.6439 5.89935C36.5046 5.59976 36.4681 5.26256 36.54 4.9401C36.5943 4.70814 36.5954 4.46691 36.5433 4.23446C36.4912 4.002 36.3872 3.78434 36.2391 3.59776C36.091 3.41117 35.9026 3.2605 35.688 3.157C35.4734 3.0535 35.2382 2.99987 35 3.0001C34.581 3.0001 34.1791 3.16656 33.8828 3.46287C33.5865 3.75918 33.42 4.16106 33.42 4.5801C33.4081 4.6998 33.4081 4.8204 33.42 4.9401C33.4781 5.25195 33.4358 5.57419 33.2992 5.8605C33.1627 6.14681 32.9389 6.38245 32.66 6.53357C32.3811 6.68469 32.0614 6.7435 31.747 6.70155C31.4326 6.6596 31.1396 6.51905 30.91 6.3001C30.7647 6.13195 30.5852 5.99678 30.3834 5.90365C30.1816 5.81052 29.9623 5.76158 29.74 5.7601C29.344 5.79168 28.9744 5.97131 28.7048 6.2632C28.4353 6.55508 28.2856 6.9378 28.2856 7.3351C28.2856 7.7324 28.4353 8.11512 28.7048 8.407C28.9744 8.69889 29.344 8.87852 29.74 8.9101H29.92C30.1313 8.88126 30.3464 8.89841 30.5504 8.9604C30.7545 9.02239 30.9427 9.12774 31.1022 9.26924C31.2618 9.41075 31.3889 9.58506 31.4748 9.78024C31.5607 9.97543 31.6034 10.1869 31.6 10.4001V11.4901Z" fill="#286EB7"/>
<path d="M41.46 46.8898C43.23 47.2398 49.05 47.8898 50.92 48.1298C50.92 48.1298 45.29 41.3798 41.46 37.7598" fill="white"/>
<path d="M50.92 49.6299H50.75C47.36 49.2299 42.75 48.6899 41.18 48.3699C40.9854 48.333 40.8001 48.2576 40.635 48.1481C40.4699 48.0387 40.3283 47.8975 40.2184 47.7326C40.1086 47.5678 40.0327 47.3828 39.9952 47.1883C39.9577 46.9938 39.9593 46.7938 40 46.5999C40.0797 46.2116 40.309 45.8702 40.6383 45.6494C40.9676 45.4286 41.3705 45.3462 41.76 45.4199C42.76 45.6099 45.12 45.9199 47.29 46.1799C45.29 43.9399 42.58 40.8699 40.44 38.8499C40.1509 38.5754 39.9827 38.1973 39.9724 37.7988C39.9621 37.4003 40.1105 37.014 40.385 36.7249C40.6595 36.4359 41.0376 36.2677 41.4361 36.2573C41.8346 36.247 42.2209 36.3954 42.51 36.6699C46.35 40.3099 51.85 46.8899 52.08 47.1599C52.2654 47.3786 52.3842 47.6458 52.4225 47.9299C52.4607 48.2141 52.4167 48.5032 52.2957 48.7631C52.1747 49.023 51.9817 49.2427 51.7397 49.3964C51.4977 49.55 51.2167 49.6311 50.93 49.6299H50.92Z" fill="#286EB7"/>
<path d="M24.6 40.3698C9.09998 32.8498 1.53998 21.5698 1.53998 21.5698C11.1992 22.6055 20.5301 25.6726 28.92 30.5698V42.5698L24.6 40.3698Z" fill="white"/>
<path d="M28.92 44.0702C28.6838 44.0719 28.4506 44.017 28.24 43.9102L23.93 41.7102C8.26 34.1002 0.609998 22.8802 0.289998 22.4102C0.133739 22.1689 0.0505981 21.8876 0.0505981 21.6002C0.0505981 21.3128 0.133739 21.0315 0.289998 20.7902C0.439726 20.5468 0.655464 20.3508 0.91214 20.2251C1.16882 20.0995 1.45589 20.0492 1.74 20.0802C11.6141 21.1216 21.1563 24.2398 29.74 29.2302C29.9655 29.3616 30.1526 29.5499 30.2824 29.7763C30.4123 30.0027 30.4804 30.2592 30.48 30.5202V42.5702C30.4808 42.8276 30.4148 43.0807 30.2887 43.3051C30.1625 43.5294 29.9803 43.7172 29.76 43.8502C29.5088 44.007 29.2158 44.0838 28.92 44.0702ZM5 23.5702C10.6489 30.0216 17.5392 35.2693 25.26 39.0002L27.4 40.0802V31.3902C20.4617 27.4635 12.8746 24.8147 5 23.5702Z" fill="#286EB7"/>
<path d="M64.35 56.8801C64.1021 56.8797 63.8581 56.8179 63.64 56.7001L50.21 49.4501C50.0366 49.3562 49.8835 49.2291 49.7593 49.076C49.635 48.9229 49.5422 48.7469 49.486 48.5579C49.4298 48.3689 49.4114 48.1708 49.4318 47.9747C49.4522 47.7786 49.5111 47.5885 49.605 47.4151C49.6989 47.2418 49.826 47.0886 49.9791 46.9644C50.1322 46.8402 50.3082 46.7473 50.4972 46.6912C50.6861 46.635 50.8843 46.6166 51.0804 46.637C51.2765 46.6574 51.4666 46.7162 51.64 46.8101L65.06 54.0601C65.3536 54.2186 65.586 54.4705 65.7204 54.7759C65.8548 55.0813 65.8836 55.4228 65.8021 55.7463C65.7207 56.0699 65.5336 56.3571 65.2706 56.5624C65.0076 56.7678 64.6836 56.8796 64.35 56.8801Z" fill="#286EB7"/>
<path d="M28.92 48.9999C23 52.3199 17.7 55.4999 11.77 59.1799C8.85 57.6499 6.45999 55.3899 7.05999 50.3599C14.64 47.0499 18.63 44.3599 25.61 40.8799L28.92 42.2599V48.9999Z" fill="white"/>
<path d="M11.77 60.6798C11.5299 60.6781 11.2935 60.6199 11.08 60.5098C8.36001 59.0798 4.83001 56.4498 5.58001 50.1798C5.611 49.9235 5.70853 49.6797 5.86291 49.4727C6.01729 49.2657 6.22314 49.1026 6.46001 48.9998C11.19 46.9298 14.54 45.1098 18.07 43.1898C20.17 42.0398 22.34 40.8598 24.93 39.5598C25.1258 39.4686 25.3391 39.4214 25.555 39.4214C25.771 39.4214 25.9843 39.4686 26.18 39.5598L29.5 40.9398C29.7729 41.0528 30.006 41.2443 30.1698 41.49C30.3336 41.7357 30.4207 42.0245 30.42 42.3198V48.9998C30.4213 49.2647 30.3514 49.525 30.2177 49.7537C30.084 49.9824 29.8914 50.171 29.66 50.2998C23.94 53.5398 18.66 56.6798 12.57 60.4698C12.3277 60.6119 12.0509 60.6846 11.77 60.6798ZM8.48001 51.3698C8.33399 52.5939 8.56858 53.8333 9.15187 54.9194C9.73517 56.0055 10.6389 56.8855 11.74 57.4398C17.29 53.9998 22.19 51.0898 27.42 48.1098V43.2598L25.67 42.5398C23.39 43.6998 21.42 44.7698 19.51 45.8098C16.12 47.6598 12.9 49.3998 8.48001 51.3698Z" fill="#286EB7"/>
<path d="M44.48 40.3101C53.81 35.3101 59.22 33.0601 68.48 28.9101C67.87 25.0001 66.42 22.0001 63.77 20.0801C56.63 24.7467 49.0667 29.2834 41.08 33.6901V37.3501L44.48 40.3101Z" fill="white"/>
<path d="M44.48 41.8102C44.1129 41.8116 43.7577 41.6802 43.48 41.4402L40.09 38.4402C39.9265 38.3008 39.7953 38.1276 39.7055 37.9324C39.6157 37.7373 39.5695 37.525 39.57 37.3102V33.6902C39.5703 33.4205 39.6428 33.1559 39.78 32.9238C39.9172 32.6917 40.114 32.5005 40.35 32.3702C48.24 28.0002 55.84 23.4802 63 18.8302C63.2486 18.659 63.5432 18.5674 63.845 18.5674C64.1468 18.5674 64.4415 18.659 64.69 18.8302C67.51 20.8302 69.3 24.1302 70.01 28.6402C70.0631 28.9644 70.0076 29.297 69.852 29.5864C69.6965 29.8757 69.4497 30.1056 69.15 30.2402L65.42 31.9102C58.33 35.0702 53.2 37.3602 45.23 41.6002C45.0036 41.7368 44.7444 41.8094 44.48 41.8102ZM42.58 36.6702L44.69 38.5002C52.23 34.5002 57.27 32.2702 64.15 29.2002L66.79 28.0002C66.4214 25.693 65.3328 23.5615 63.68 21.9102C57 26.2702 49.92 30.5202 42.58 34.5702V36.6702Z" fill="#286EB7"/>
</g>
<defs>
<clipPath id="clip0">
<rect width="70" height="70" fill="white"/>
</clipPath>
</defs>
</svg>
