<svg width="70" height="70" viewBox="0 0 70 70" fill="none" xmlns="http://www.w3.org/2000/svg">
<g clip-path="url(#clip0)">
<path d="M8.66999 68.5H23.21L23.21 38.34H8.66999L8.66999 68.5Z" fill="#E0E6EA"/>
<path d="M23.21 70H8.67C8.27217 70 7.89064 69.842 7.60934 69.5607C7.32803 69.2794 7.17 68.8979 7.17 68.5V38.34C7.17 37.9422 7.32803 37.5607 7.60934 37.2794C7.89064 36.9981 8.27217 36.84 8.67 36.84H23.21C23.6078 36.84 23.9894 36.9981 24.2707 37.2794C24.552 37.5607 24.71 37.9422 24.71 38.34V68.5C24.71 68.8979 24.552 69.2794 24.2707 69.5607C23.9894 69.842 23.6078 70 23.21 70ZM10.21 67H21.71V39.84H10.17L10.21 67Z" fill="#286EB7"/>
<path d="M68.5 67H62.06V26.89C62.06 26.4922 61.902 26.1107 61.6207 25.8294C61.3394 25.5481 60.9578 25.39 60.56 25.39H56.83V21.15C56.83 20.7522 56.672 20.3707 56.3907 20.0894C56.1094 19.8081 55.7278 19.65 55.33 19.65H28.49C28.0922 19.65 27.7106 19.8081 27.4293 20.0894C27.148 20.3707 26.99 20.7522 26.99 21.15V25.39H23.21C22.8122 25.39 22.4306 25.5481 22.1493 25.8294C21.868 26.1107 21.71 26.4922 21.71 26.89V31.09H12.71C12.3122 31.09 11.9306 31.2481 11.6493 31.5294C11.368 31.8107 11.21 32.1922 11.21 32.59V38.34C11.21 38.7379 11.368 39.1194 11.6493 39.4007C11.9306 39.682 12.3122 39.84 12.71 39.84H21.71V67H1.5C1.10218 67 0.720644 67.1581 0.43934 67.4394C0.158035 67.7207 0 68.1022 0 68.5C0 68.8978 0.158035 69.2794 0.43934 69.5607C0.720644 69.842 1.10218 70 1.5 70H68.5C68.8978 70 69.2794 69.842 69.5607 69.5607C69.842 69.2794 70 68.8978 70 68.5C70 68.1022 69.842 67.7207 69.5607 67.4394C69.2794 67.1581 68.8978 67 68.5 67ZM30 22.65H53.83V25.39H30V22.65ZM14.21 36.84V34.09H21.71V36.84H14.21ZM24.71 67V28.39H59.06V67H24.71Z" fill="#286EB7"/>
<path d="M37.19 43.44H31.1C30.7022 43.44 30.3206 43.598 30.0393 43.8793C29.758 44.1606 29.6 44.5422 29.6 44.94V49.6C29.6 49.9978 29.758 50.3794 30.0393 50.6607C30.3206 50.942 30.7022 51.1 31.1 51.1C31.4978 51.1 31.8794 50.942 32.1607 50.6607C32.442 50.3794 32.6 49.9978 32.6 49.6V46.44H35.69V49.6C35.69 49.9978 35.848 50.3794 36.1293 50.6607C36.4107 50.942 36.7922 51.1 37.19 51.1C37.5878 51.1 37.9694 50.942 38.2507 50.6607C38.532 50.3794 38.69 49.9978 38.69 49.6V44.94C38.69 44.5422 38.532 44.1606 38.2507 43.8793C37.9694 43.598 37.5878 43.44 37.19 43.44Z" fill="#286EB7"/>
<path d="M37.19 32.72H31.1C30.7022 32.72 30.3206 32.878 30.0393 33.1593C29.758 33.4406 29.6 33.8221 29.6 34.22V38.88C29.6 39.2778 29.758 39.6593 30.0393 39.9406C30.3206 40.2219 30.7022 40.38 31.1 40.38C31.4978 40.38 31.8794 40.2219 32.1607 39.9406C32.442 39.6593 32.6 39.2778 32.6 38.88V35.72H35.69V38.88C35.69 39.2778 35.848 39.6593 36.1293 39.9406C36.4107 40.2219 36.7922 40.38 37.19 40.38C37.5878 40.38 37.9694 40.2219 38.2507 39.9406C38.532 39.6593 38.69 39.2778 38.69 38.88V34.22C38.69 33.8221 38.532 33.4406 38.2507 33.1593C37.9694 32.878 37.5878 32.72 37.19 32.72Z" fill="#286EB7"/>
<path d="M37.38 68.5H46.31V56.31H37.38V68.5Z" fill="#E0E6EA"/>
<path d="M46.31 70H37.37C36.9722 70 36.5906 69.842 36.3093 69.5607C36.028 69.2794 35.87 68.8978 35.87 68.5V56.32C35.87 55.9222 36.028 55.5407 36.3093 55.2593C36.5906 54.978 36.9722 54.82 37.37 54.82H46.31C46.7078 54.82 47.0894 54.978 47.3707 55.2593C47.652 55.5407 47.81 55.9222 47.81 56.32V68.5C47.81 68.8978 47.652 69.2794 47.3707 69.5607C47.0894 69.842 46.7078 70 46.31 70ZM38.87 67H44.81V57.82H38.87V67Z" fill="#286EB7"/>
<path d="M55 1.52002C52.6536 1.52112 50.3477 2.13153 48.308 3.29147C46.2683 4.45141 44.5648 6.12113 43.3643 8.13716C42.1638 10.1532 41.5073 12.4464 41.4592 14.7924C41.4111 17.1383 41.9731 19.4565 43.09 21.52L54.22 41.68C54.2918 41.8138 54.3986 41.9255 54.5289 42.0035C54.6592 42.0814 54.8082 42.1225 54.96 42.1225C55.1118 42.1225 55.2608 42.0814 55.3911 42.0035C55.5214 41.9255 55.6282 41.8138 55.7 41.68L66.87 21.48C67.9788 19.4211 68.5355 17.1102 68.4858 14.7722C68.4361 12.4343 67.7818 10.1491 66.5865 8.13915C65.3912 6.12923 63.6957 4.46314 61.6653 3.30316C59.6348 2.14318 57.3385 1.52885 55 1.52002Z" fill="#E0E6EA"/>
<path d="M55 43.62C54.5813 43.6202 54.1702 43.508 53.8096 43.2951C53.4491 43.0823 53.1522 42.7766 52.95 42.41L41.74 22.21C40.5168 19.9246 39.9068 17.3612 39.9694 14.7698C40.0319 12.1785 40.765 9.64753 42.097 7.42383C43.429 5.20012 45.3146 3.35955 47.5698 2.08159C49.825 0.803628 52.3729 0.131897 54.965 0.131897C57.5571 0.131897 60.105 0.803628 62.3602 2.08159C64.6154 3.35955 66.501 5.20012 67.833 7.42383C69.165 9.64753 69.8981 12.1785 69.9606 14.7698C70.0232 17.3612 69.4132 19.9246 68.19 22.21L57 42.41C56.8036 42.7706 56.5149 43.0727 56.1635 43.2853C55.8121 43.4979 55.4106 43.6134 55 43.62ZM55 2.99999C52.9068 2.98106 50.845 3.51002 49.0194 4.53436C47.1939 5.55869 45.668 7.04276 44.5934 8.83919C43.5188 10.6356 42.9328 12.6819 42.8936 14.7749C42.8544 16.8678 43.3634 18.9346 44.37 20.77L55 39.92L65.6 20.75C66.6005 18.9174 67.1055 16.8556 67.0652 14.7681C67.0249 12.6806 66.4406 10.6398 65.3701 8.8472C64.2996 7.05465 62.78 5.57241 60.9613 4.54694C59.1426 3.52147 57.0878 2.98826 55 2.99999Z" fill="#286EB7"/>
<path d="M54.96 21.82C58.3676 21.82 61.13 19.0576 61.13 15.65C61.13 12.2424 58.3676 9.47998 54.96 9.47998C51.5524 9.47998 48.79 12.2424 48.79 15.65C48.79 19.0576 51.5524 21.82 54.96 21.82Z" fill="white"/>
<path d="M55 23.32C53.483 23.32 52.0001 22.8701 50.7388 22.0274C49.4774 21.1846 48.4944 19.9867 47.9138 18.5852C47.3333 17.1837 47.1814 15.6415 47.4774 14.1536C47.7733 12.6658 48.5038 11.2991 49.5765 10.2265C50.6492 9.15381 52.0158 8.42331 53.5036 8.12736C54.9915 7.83141 56.5337 7.9833 57.9352 8.56383C59.3367 9.14435 60.5346 10.1274 61.3774 11.3888C62.2202 12.6501 62.67 14.133 62.67 15.65C62.6673 17.6834 61.8584 19.6327 60.4206 21.0706C58.9827 22.5084 57.0334 23.3173 55 23.32ZM55 11C54.0764 11 53.1735 11.2739 52.4055 11.787C51.6375 12.3002 51.0389 13.0295 50.6855 13.8829C50.332 14.7362 50.2395 15.6752 50.4197 16.5811C50.5999 17.4869 51.0447 18.3191 51.6978 18.9722C52.3509 19.6253 53.183 20.0701 54.0889 20.2503C54.9948 20.4304 55.9338 20.338 56.7871 19.9845C57.6405 19.631 58.3698 19.0325 58.883 18.2645C59.3961 17.4965 59.67 16.5936 59.67 15.67C59.6673 14.4322 59.1745 13.2459 58.2993 12.3707C57.424 11.4955 56.2377 11.0026 55 11Z" fill="#286EB7"/>
</g>
<defs>
<clipPath id="clip0">
<rect width="70" height="70" fill="white"/>
</clipPath>
</defs>
</svg>
