<svg width="70" height="70" viewBox="0 0 70 70" fill="none" xmlns="http://www.w3.org/2000/svg">
<g clip-path="url(#clip0)">
<path d="M67.83 2.41998H2.34998V12.25H67.83V2.41998Z" fill="#E0E6EA"/>
<path d="M62.5 19.29H26.62V26.92H62.5V19.29Z" fill="#E0E6EA"/>
<path d="M62.5 28.42H26.62C26.2222 28.42 25.8406 28.262 25.5593 27.9807C25.278 27.6994 25.12 27.3179 25.12 26.92V19.29C25.12 18.8922 25.278 18.5107 25.5593 18.2294C25.8406 17.9481 26.2222 17.79 26.62 17.79H62.5C62.8978 17.79 63.2794 17.9481 63.5607 18.2294C63.842 18.5107 64 18.8922 64 19.29V26.92C64 27.3179 63.842 27.6994 63.5607 27.9807C63.2794 28.262 62.8978 28.42 62.5 28.42ZM28.12 25.42H61V20.79H28.12V25.42Z" fill="#286EB7"/>
<path d="M38.94 49.42H26.62V33.79H62.5V49.42H56.26" fill="#E0E6EA"/>
<path d="M62.5 50.92H56.26V47.92H61V35.29H28.12V47.92H38.94V50.92H26.62C26.2222 50.92 25.8406 50.762 25.5593 50.4807C25.278 50.1994 25.12 49.8179 25.12 49.42V33.79C25.12 33.3922 25.278 33.0107 25.5593 32.7294C25.8406 32.4481 26.2222 32.29 26.62 32.29H62.5C62.8978 32.29 63.2794 32.4481 63.5607 32.7294C63.842 33.0107 64 33.3922 64 33.79V49.42C64 49.8179 63.842 50.1994 63.5607 50.4807C63.2794 50.762 62.8978 50.92 62.5 50.92Z" fill="#286EB7"/>
<path d="M7.34001 6C7.06087 5.98803 6.78453 6.05985 6.54655 6.20623C6.30856 6.3526 6.11982 6.56684 6.0046 6.82137C5.88938 7.0759 5.85295 7.35908 5.9 7.63449C5.94705 7.90989 6.07543 8.16492 6.26862 8.36676C6.46181 8.5686 6.71097 8.70802 6.98406 8.76708C7.25714 8.82614 7.54164 8.80215 7.80097 8.69818C8.0603 8.59421 8.2826 8.41502 8.43925 8.18368C8.5959 7.95233 8.67975 7.6794 8.68001 7.4C8.68399 7.22008 8.65248 7.04114 8.58729 6.8734C8.5221 6.70565 8.42449 6.5524 8.30005 6.42239C8.17561 6.29238 8.02678 6.18816 7.86205 6.11568C7.69732 6.04321 7.51993 6.0039 7.34001 6Z" fill="#286EB7"/>
<path d="M13 6C12.7209 5.98803 12.4446 6.05985 12.2066 6.20623C11.9686 6.3526 11.7799 6.56684 11.6646 6.82137C11.5494 7.0759 11.513 7.35908 11.56 7.63449C11.6071 7.90989 11.7355 8.16492 11.9287 8.36676C12.1218 8.5686 12.371 8.70802 12.6441 8.76708C12.9172 8.82614 13.2017 8.80215 13.461 8.69818C13.7203 8.59421 13.9426 8.41502 14.0993 8.18368C14.2559 7.95233 14.3398 7.6794 14.34 7.4C14.344 7.22008 14.3125 7.04114 14.2473 6.8734C14.1821 6.70565 14.0845 6.5524 13.9601 6.42239C13.8356 6.29238 13.6868 6.18816 13.5221 6.11568C13.3574 6.04321 13.18 6.0039 13 6Z" fill="#286EB7"/>
<path d="M18.71 6C18.4309 5.98803 18.1545 6.05985 17.9165 6.20623C17.6786 6.3526 17.4898 6.56684 17.3746 6.82137C17.2594 7.0759 17.2229 7.35908 17.27 7.63449C17.317 7.90989 17.4454 8.16492 17.6386 8.36676C17.8318 8.5686 18.081 8.70802 18.3541 8.76708C18.6271 8.82614 18.9116 8.80215 19.171 8.69818C19.4303 8.59421 19.6526 8.41502 19.8092 8.18368C19.9659 7.95233 20.0497 7.6794 20.05 7.4C20.054 7.22008 20.0225 7.04114 19.9573 6.8734C19.8921 6.70565 19.7945 6.5524 19.67 6.42239C19.5456 6.29238 19.3968 6.18816 19.232 6.11568C19.0673 6.04321 18.8899 6.0039 18.71 6Z" fill="#286EB7"/>
<path d="M65.52 0H4.50001C3.90822 -1.4612e-06 3.32224 0.116725 2.77562 0.343496C2.229 0.570267 1.73248 0.90263 1.31449 1.32155C0.896495 1.74048 0.565236 2.23773 0.339679 2.78485C0.114122 3.33197 -0.00130398 3.91821 1.11121e-05 4.51V52.51C0.00528954 53.7009 0.481407 54.8414 1.32446 55.6826C2.16752 56.5238 3.30907 56.9974 4.50001 57H40.57V54H4.50001C4.10391 54 3.72389 53.8433 3.44287 53.5642C3.16185 53.2851 3.00265 52.9061 3.00001 52.51V14.79H67V52.51C67 52.9078 66.842 53.2894 66.5607 53.5707C66.2794 53.852 65.8978 54.01 65.5 54.01H57.31V57.01H65.52C66.7127 57.0074 67.8557 56.5324 68.6991 55.6891C69.5424 54.8457 70.0174 53.7027 70.02 52.51V4.51C70.0213 3.91821 69.9059 3.33197 69.6803 2.78485C69.4548 2.23773 69.1235 1.74048 68.7055 1.32155C68.2875 0.90263 67.791 0.570267 67.2444 0.343496C66.6978 0.116725 66.1118 -1.4612e-06 65.52 0V0ZM67 11.79H3.00001V4.51C2.99869 4.31218 3.03652 4.11605 3.11131 3.9329C3.1861 3.74976 3.29638 3.58322 3.4358 3.44287C3.57522 3.30252 3.74102 3.19114 3.92367 3.11513C4.10631 3.03912 4.30218 3 4.50001 3H65.5C65.6978 3 65.8937 3.03912 66.0764 3.11513C66.259 3.19114 66.4248 3.30252 66.5642 3.44287C66.7036 3.58322 66.8139 3.74976 66.8887 3.9329C66.9635 4.11605 67.0013 4.31218 67 4.51V11.79Z" fill="#286EB7"/>
<path d="M7.09998 24.78C7.09998 26.1645 7.51052 27.5179 8.27969 28.669C9.04886 29.8202 10.1421 30.7174 11.4212 31.2472C12.7003 31.777 14.1077 31.9156 15.4656 31.6455C16.8235 31.3754 18.0708 30.7087 19.0497 29.7298C20.0287 28.7508 20.6954 27.5035 20.9655 26.1457C21.2356 24.7878 21.0969 23.3803 20.5671 22.1012C20.0373 20.8222 19.1401 19.7289 17.989 18.9597C16.8378 18.1906 15.4844 17.78 14.1 17.78C12.2435 17.78 10.463 18.5175 9.15023 19.8303C7.83747 21.143 7.09998 22.9235 7.09998 24.78ZM18.1 24.78C18.1 25.5712 17.8654 26.3445 17.4259 27.0023C16.9863 27.6601 16.3616 28.1728 15.6307 28.4755C14.8998 28.7783 14.0955 28.8575 13.3196 28.7032C12.5437 28.5488 11.831 28.1679 11.2715 27.6085C10.7121 27.049 10.3312 26.3363 10.1768 25.5604C10.0225 24.7845 10.1017 23.9802 10.4045 23.2493C10.7072 22.5184 11.2199 21.8937 11.8777 21.4541C12.5355 21.0146 13.3089 20.78 14.1 20.78C15.1574 20.7853 16.1697 21.2091 16.9155 21.9586C17.6613 22.7082 18.08 23.7226 18.08 24.78H18.1Z" fill="#286EB7"/>
<path d="M57.83 47.85L37.02 42.27L42.6 63.08L46.85 58.83L56.27 68.5L62.99 61.77L53.57 52.11L57.83 47.85Z" fill="white"/>
<path d="M56.27 70C56.0717 69.9972 55.8759 69.9551 55.6939 69.8761C55.512 69.7972 55.3475 69.6829 55.21 69.54L46.84 61L43.66 64.18C43.474 64.3663 43.2422 64.5004 42.988 64.5687C42.7337 64.6371 42.466 64.6373 42.2116 64.5694C41.9572 64.5015 41.7252 64.3679 41.5389 64.1819C41.3525 63.9959 41.2184 63.7642 41.15 63.51L35.57 42.66C35.4999 42.4054 35.4986 42.1369 35.5664 41.8817C35.6342 41.6266 35.7686 41.394 35.9558 41.2078C36.1429 41.0217 36.3762 40.8886 36.6318 40.8222C36.8873 40.7558 37.1558 40.7585 37.41 40.83L58.22 46.4C58.4737 46.4691 58.7049 46.6032 58.8908 46.7891C59.0767 46.9751 59.2109 47.2063 59.28 47.46C59.3481 47.7146 59.3479 47.9827 59.2795 48.2373C59.211 48.4918 59.0767 48.7239 58.89 48.91L55.68 52.12L64.06 60.73C64.1985 60.8675 64.3084 61.0311 64.3833 61.2113C64.4583 61.3915 64.497 61.5848 64.497 61.78C64.497 61.9752 64.4583 62.1684 64.3833 62.3486C64.3084 62.5288 64.1985 62.6924 64.06 62.83L57.34 69.56C57.1996 69.7005 57.0328 69.8117 56.8491 69.8873C56.6654 69.9628 56.4686 70.0011 56.27 70ZM46.85 57.33C47.0494 57.3296 47.2468 57.3692 47.4306 57.4465C47.6144 57.5238 47.7808 57.6372 47.92 57.78L56.27 66.36L60.87 61.76L52.5 53.15C52.3615 53.0124 52.2516 52.8488 52.1766 52.6686C52.1016 52.4884 52.063 52.2952 52.063 52.1C52.063 51.9048 52.1016 51.7115 52.1766 51.5313C52.2516 51.3511 52.3615 51.1875 52.5 51.05L54.92 48.63L39.14 44.4L43.37 60.18L45.79 57.77C45.9281 57.6293 46.0932 57.5178 46.2753 57.4422C46.4574 57.3667 46.6528 57.3285 46.85 57.33Z" fill="#286EB7"/>
</g>
<defs>
<clipPath id="clip0">
<rect width="70" height="70" fill="white"/>
</clipPath>
</defs>
</svg>
