<svg width="25" height="24" viewBox="0 0 25 24" fill="none" xmlns="http://www.w3.org/2000/svg">
<path fill-rule="evenodd" clip-rule="evenodd" d="M23.1216 23.9965C23.3711 23.9965 23.6104 23.8976 23.7866 23.7216C23.9628 23.5456 24.0614 23.307 24.0607 23.0584L24.0289 11.9328C24.0274 11.4161 23.6058 10.9985 23.0871 11C22.5684 11.0015 22.1492 11.4215 22.1507 11.9381L22.1798 22.1257L1.9427 22.1257L1.9427 1.87084L12.0462 1.87084C12.5649 1.87084 12.9853 1.45204 12.9853 0.935419C12.9853 0.418802 12.5648 0 12.0462 0L1.00358 2.50007e-06C0.484913 0 0.0644531 0.418803 0.0644531 0.935422V23.0611C0.0644531 23.3092 0.163395 23.5471 0.339515 23.7225C0.515636 23.898 0.754505 23.9965 1.00358 23.9965L23.1216 23.9965ZM22.1507 4.93544C22.1507 5.45206 22.5711 5.87085 23.0898 5.87084C23.6085 5.87083 24.0289 5.45201 24.0289 4.9354L24.0288 0.935407C24.0288 0.418798 23.6083 1.01591e-05 23.0897 1.04189e-05L19.0743 1.80899e-05C18.5557 1.89016e-05 18.1352 0.418822 18.1352 0.935439C18.1352 1.45206 18.5557 1.87086 19.0743 1.87086L20.6993 1.87085L13.5364 9.00608C13.1452 9.39576 13.1453 10.0277 13.5367 10.4175C13.9281 10.8074 14.5625 10.8075 14.9537 10.4178L22.1506 3.24868L22.1507 4.93544Z" fill="#8C98A3"/>
</svg>
