
<svg xmlns="http://www.w3.org/2000/svg" viewBox="0 0 24 24"><path d="M6.64 17.36a1 1 0 0 0 1.38 0L17.36 8A1 1 0 0 0 16 6.64L6.64 16a1 1 0 0 0 0 1.36z"/><path d="M22 2a6.75 6.75 0 0 0-9.53 0l-3.2 3.2a1 1 0 0 0 1.38 1.38l3.23-3.22a4.78 4.78 0 0 1 6.76 6.76l-3.23 3.22a1 1 0 0 0 0 1.39 1 1 0 0 0 .7.29 1 1 0 0 0 .69-.29l3.2-3.22A6.74 6.74 0 0 0 22 2zM13.34 17.42l-3.22 3.22a4.78 4.78 0 0 1-6.76-6.76l3.22-3.22a1 1 0 0 0-1.39-1.39L2 12.49A6.74 6.74 0 0 0 6.74 24a6.69 6.69 0 0 0 4.76-2l3.23-3.23a1 1 0 1 0-1.39-1.38z"/></svg>