<svg width="70" height="70" viewBox="0 0 70 70" fill="none" xmlns="http://www.w3.org/2000/svg">
<path d="M13 67.9399C12.4752 67.7397 11.9697 67.492 11.49 67.1999L6.23999 64.6999C6.12791 64.6489 6.02621 64.5777 5.93999 64.4899C5.37999 63.9299 3.26999 61.7799 3.05999 60.6999C2.80999 59.4699 3.30999 59.0499 3.05999 58.4399C2.43084 57.4727 1.92366 56.4315 1.54999 55.3399C1.51231 55.1344 1.53283 54.9226 1.60923 54.7282C1.68562 54.5338 1.81484 54.3646 1.9823 54.2398C2.14975 54.115 2.34877 54.0395 2.55688 54.0219C2.76499 54.0042 2.97389 54.0451 3.15999 54.1399L3.55999 54.3499C5.55999 55.3499 6.82999 55.7899 8.32999 55.3499C9.82999 54.9099 8.32999 53.8999 7.82999 52.2499C7.32999 50.5999 5.56999 48.3399 5.82999 47.7199C5.94999 47.4299 10.83 42.4099 10.58 40.9699C10.443 39.9746 10.443 38.9652 10.58 37.9699C10.58 37.9699 12.17 33.4399 12.38 33.2999C13.11 32.8299 18.38 32.8599 19.6 32.2199C21.1 31.3899 24.6 28.7099 27.6 27.2199C30.04 26.0499 31.49 26.7799 31.95 27.0899C32.0734 27.1764 32.2128 27.2376 32.36 27.2699L34.87 27.7799C35.0376 27.8198 35.2123 27.8198 35.38 27.7799C37.9798 27.1072 40.5058 26.1759 42.92 24.9999C45.1 23.8099 43.74 22.9399 42.81 22.5499C42.615 22.4628 42.448 22.3231 42.3279 22.1465C42.2078 21.9698 42.1393 21.7632 42.13 21.5499L42 18.4099C41.9852 18.1669 42.0492 17.9257 42.1826 17.7221C42.3159 17.5185 42.5114 17.3634 42.74 17.2799L50 14.6099C50.2747 14.512 50.5768 14.5252 50.842 14.6465C51.1071 14.7679 51.3145 14.988 51.42 15.2599C51.72 15.9699 51.99 16.8899 51.71 17.3499C51.21 18.1799 54.97 19.8299 55.71 19.8299C56.5948 20.0023 57.4481 20.3092 58.24 20.7399C58.3914 20.8183 58.5594 20.8595 58.73 20.8599H62.73C62.9029 20.8618 63.073 20.9033 63.2273 20.9814C63.3816 21.0594 63.516 21.1718 63.62 21.3099L68.24 27.3699C68.3891 27.5614 68.4701 27.7971 68.47 28.0399C68.47 29.3399 68.54 33.5399 68.47 34.0399C68.4 34.5399 63.4 37.4199 62.84 37.7299H62.73L59.74 38.9999C58.23 39.6199 58.49 44.5699 60.24 43.1199C60.4333 42.9165 60.666 42.7546 60.9239 42.644C61.1817 42.5334 61.4594 42.4764 61.74 42.4764C62.0206 42.4764 62.2982 42.5334 62.5561 42.644C62.8139 42.7546 63.0466 42.9165 63.24 43.1199C64.3237 44.4556 65.2498 45.9119 66 47.4599C66.75 49.3199 66.25 51.9999 67.76 52.6199C69.04 53.1399 68.14 55.3099 67.85 55.9399C67.7919 56.0562 67.7178 56.1639 67.63 56.2599L64.89 59.0699C64.8016 59.1692 64.6923 59.2478 64.57 59.2999C63.52 59.7999 58.16 62.2999 57.48 62.2999C56.8 62.2999 54.62 65.3499 53.93 66.2999C53.7925 66.4961 53.7191 66.7302 53.72 66.9699L47.87 67.4499L43.25 65.4499C43.25 65.4499 39.83 66.5099 39.12 66.7799C38.79 66.9099 36.46 67.6999 36.46 67.6999C34.1574 67.9753 31.8386 68.0922 29.52 68.0499C28.04 68.0499 27.36 67.8399 25.02 66.3899C24.08 65.7999 20.87 65.0799 19.75 65.6999C18.4723 66.4937 17.079 67.0841 15.62 67.4499C14.7835 67.7702 13.8958 67.9362 13 67.9399Z" fill="#E0E6EA"/>
<path d="M30.55 69.62H29.5C27.7 69.62 26.8 69.32 24.25 67.73C23.0649 67.1989 21.7639 66.9786 20.47 67.09L20.09 67.31C18.8434 68.0505 17.4961 68.6062 16.09 68.96C15.0331 69.3387 13.911 69.5019 12.79 69.44C12.7337 69.4495 12.6763 69.4495 12.62 69.44C12.1094 69.2903 11.6215 69.0716 11.17 68.79L10.83 68.6L5.59001 66.06C5.32596 65.9318 5.08582 65.7593 4.88001 65.55C2.88001 63.55 1.80001 62.06 1.59001 61C1.45048 60.3407 1.45048 59.6594 1.59001 59C1.5947 58.9702 1.5947 58.9398 1.59001 58.91L1.31001 58.42C0.741129 57.5721 0.324863 56.6313 0.0800135 55.64C-0.0217987 55.1556 0.015681 54.6523 0.188112 54.1884C0.360544 53.7244 0.660872 53.3188 1.05432 53.0185C1.44777 52.7182 1.91823 52.5354 2.41124 52.4915C2.90425 52.4475 3.39963 52.5441 3.84001 52.77L4.24001 52.98C5.08904 53.4877 6.02486 53.8336 7.00001 54C6.76331 53.5852 6.5722 53.146 6.43001 52.69C6.16294 51.9508 5.82819 51.2377 5.43001 50.56C4.65001 49.17 4.09001 48.16 4.50001 47.16C4.62001 46.85 4.75001 46.7 5.50001 45.86C8.22001 42.78 8.99001 41.55 9.14001 41.07C8.99311 39.8881 9.03022 38.6906 9.25001 37.52C11.01 32.52 11.19 32.37 11.66 32.06C12.13 31.75 13.13 31.57 15.47 31.38C16.6513 31.3244 17.8257 31.1671 18.98 30.91C19.45 30.66 20.23 30.13 21.14 29.52C23.0094 28.1885 24.9673 26.9857 27 25.92C30 24.46 32 25.36 32.79 25.87L35.13 26.34C37.4933 25.7066 39.7931 24.8563 42 23.8C41.61 23.5768 41.2821 23.2594 41.0462 22.8769C40.8104 22.4943 40.6742 22.0588 40.65 21.61L40.48 18.49C40.4476 17.9266 40.5974 17.3676 40.9071 16.8958C41.2169 16.424 41.6701 16.0644 42.2 15.87L49.49 13.2C50.13 12.9695 50.8344 12.996 51.4554 13.2738C52.0763 13.5516 52.5654 14.0592 52.82 14.69C53.1912 15.4726 53.363 16.3349 53.32 17.2C54.0938 17.6966 54.9361 18.0772 55.82 18.33C56.02 18.33 56.72 18.33 58.82 19.33H62.68C63.0801 19.3268 63.4755 19.4153 63.8361 19.5887C64.1966 19.762 64.5127 20.0156 64.76 20.33L69.38 26.39C69.7422 26.8479 69.9364 27.4162 69.93 28C70.01 33.56 69.93 34.07 69.93 34.23C69.83 34.95 69.75 35.58 63.54 39.03L63.27 39.16L60.46 40.32C60.3248 40.6359 60.2567 40.9764 60.26 41.32C60.9411 40.9791 61.7155 40.8717 62.4637 41.0145C63.2119 41.1572 63.8923 41.5422 64.4 42.11C65.5867 43.5675 66.5939 45.1622 67.4 46.86C67.713 47.7243 67.9147 48.6248 68 49.54C68.0349 50.1276 68.1667 50.7054 68.39 51.25C68.7009 51.3772 68.9821 51.5672 69.2161 51.8081C69.4501 52.049 69.6319 52.3356 69.75 52.65C70.0883 53.9771 69.9058 55.3833 69.24 56.58C69.1095 56.8432 68.941 57.0858 68.74 57.3L66 60.12C65.7807 60.3437 65.5234 60.5265 65.24 60.66C60.24 63.01 58.63 63.66 57.96 63.77C56.9524 64.808 56.0419 65.936 55.24 67.14C55.2125 67.4942 55.0593 67.8269 54.8081 68.0781C54.5569 68.3293 54.2242 68.4825 53.87 68.51L48 69C47.7542 69.0117 47.5087 68.9708 47.28 68.88L43.18 67.1C41.85 67.52 40.1 68.1 39.67 68.23C39.24 68.36 36.96 69.17 36.96 69.17L36.67 69.24C34.6386 69.4799 32.5955 69.6068 30.55 69.62ZM21.09 64C22.7356 64.0187 24.3559 64.4083 25.83 65.14C28.08 66.54 28.49 66.55 29.58 66.59C31.7716 66.6252 33.9631 66.515 36.14 66.26L38.61 65.41C39.34 65.13 42.47 64.16 42.82 64.05C43.1491 63.9508 43.5024 63.9685 43.82 64.1L48.14 66L52.64 65.63L52.73 65.51C55.84 61.12 56.73 60.86 57.37 60.85C59.5869 60.0109 61.7597 59.0596 63.88 58L66.53 55.27C66.7395 54.8384 66.8779 54.3758 66.94 53.9C65.43 53.11 65.21 51.37 65.02 49.96C64.9699 49.2933 64.839 48.6351 64.63 48C63.9443 46.571 63.0917 45.2283 62.09 44C61.91 43.82 61.62 43.86 61.2 44.21C60.8801 44.5168 60.4746 44.7193 60.0372 44.7907C59.5997 44.8621 59.1509 44.7991 58.75 44.61C57.32 44 57.23 42 57.26 41.22C57.32 39.43 58.03 38.09 59.17 37.62L62.12 36.41C63.7833 35.4929 65.3987 34.4916 66.96 33.41C66.96 32.64 66.96 30.89 66.96 28.14L62.5 22.35H58.73C58.3341 22.3508 57.9435 22.2583 57.59 22.08C56.9784 21.7577 56.3349 21.4996 55.67 21.31C54.67 21.31 51.25 19.94 50.43 18.48C50.2759 18.2229 50.1854 17.9326 50.1663 17.6334C50.1472 17.3342 50.1999 17.0347 50.32 16.76C50.2864 16.5488 50.2328 16.3412 50.16 16.14L43.48 18.58L43.62 21.24C45.18 21.97 45.56 22.93 45.62 23.62C45.62 24.62 45.02 25.56 43.62 26.3C41.1127 27.5656 38.4823 28.5709 35.77 29.3C35.3763 29.3999 34.9638 29.3999 34.57 29.3L32.06 28.79C31.719 28.7186 31.3959 28.5792 31.11 28.38C30.94 28.27 30.05 27.76 28.25 28.62C26.3346 29.6187 24.4903 30.748 22.73 32C21.73 32.65 20.92 33.21 20.32 33.54C19.47 34.01 17.98 34.16 15.63 34.36C14.94 34.36 14 34.49 13.44 34.58C13.12 35.36 12.54 36.95 12.05 38.34C11.9523 39.1237 11.9523 39.9164 12.05 40.7C12.29 42.07 11.23 43.81 7.68001 47.84L7.45001 48.09C7.60001 48.4 7.82001 48.79 7.99001 49.09C8.50901 49.9503 8.93794 50.8618 9.27001 51.81C9.40543 52.2271 9.59006 52.6266 9.82001 53C10.1027 53.3533 10.2965 53.7693 10.3853 54.213C10.474 54.6567 10.4551 55.1152 10.33 55.55C10.1834 55.8765 9.96073 56.163 9.68061 56.3857C9.4005 56.6084 9.07111 56.7608 8.72001 56.83C6.87001 57.34 5.36001 56.92 3.33001 55.93C3.50001 56.27 3.71001 56.6 3.89001 56.93C4.10218 57.2467 4.28622 57.5813 4.44001 57.93C4.65148 58.4651 4.68652 59.0537 4.54001 59.61C4.47428 59.8929 4.47428 60.1871 4.54001 60.47C5.18712 61.5889 6.00345 62.6008 6.96001 63.47L12.11 65.93L12.64 66.22C12.8 66.31 13.06 66.46 13.23 66.54C13.9094 66.4867 14.5804 66.3558 15.23 66.15C16.4176 65.8611 17.5564 65.3995 18.61 64.78L19.05 64.53C19.6757 64.1872 20.3766 64.0051 21.09 64Z" fill="#286EB7"/>
<path d="M42.53 11.8901H44.92C45.0833 11.8924 45.2447 11.8546 45.39 11.7801C46.7628 11.0499 48.2028 10.4538 49.69 10.0001C50.7411 9.7233 51.7502 9.30622 52.69 8.76012C52.69 8.76012 54.44 7.11012 53.44 6.08012C52.5466 5.13528 51.5388 4.30554 50.44 3.61012C49.7192 3.40069 48.9604 3.35626 48.22 3.48012C48.1138 3.48857 48.0072 3.4695 47.9105 3.42475C47.8138 3.38 47.7302 3.31109 47.6679 3.22465C47.6056 3.13822 47.5666 3.03718 47.5547 2.93129C47.5428 2.8254 47.5584 2.71823 47.6 2.62012C47.6363 2.52464 47.6485 2.42167 47.6354 2.32036C47.6223 2.21905 47.5844 2.12254 47.525 2.03942C47.4656 1.95629 47.3866 1.88913 47.295 1.84389C47.2035 1.79866 47.1021 1.77675 47 1.78012H45.89C45.742 1.78006 45.5956 1.8107 45.46 1.87012C44.65 2.22012 41.72 3.52012 42.16 4.06012C42.6 4.60012 41.57 6.74012 42.16 7.56012C42.75 8.38012 40.7 9.63012 40.7 10.2501C40.7 10.6801 41.46 11.3301 41.9 11.6701C42.0825 11.8063 42.3024 11.8831 42.53 11.8901Z" fill="#E0E6EA"/>
<path d="M42.52 13.3898C41.9443 13.3945 41.3839 13.2042 40.93 12.8498C39.71 11.9098 39.16 11.0998 39.15 10.2498C39.2312 9.4688 39.6154 8.75075 40.22 8.2498C40.33 8.1298 40.48 7.9698 40.6 7.8198C40.4091 7.00819 40.4298 6.16115 40.66 5.3598C40.7151 5.13217 40.7585 4.90187 40.79 4.6698C40.612 4.31035 40.566 3.89975 40.66 3.5098C40.84 2.8198 41.3 2.0098 44.87 0.509805C45.187 0.376793 45.5264 0.305517 45.87 0.299805H47C47.3524 0.305439 47.6976 0.400074 48.0035 0.574909C48.3095 0.749745 48.5663 0.999105 48.75 1.2998C48.9011 1.52 49.0065 1.76822 49.06 2.0298C49.7699 1.9587 50.4858 2.08319 51.13 2.3898C52.3647 3.15672 53.4942 4.08116 54.49 5.1398C54.7326 5.38168 54.9234 5.67048 55.0506 5.98856C55.1779 6.30665 55.2389 6.64733 55.23 6.9898C55.0938 8.14235 54.5471 9.2073 53.69 9.9898C53.5986 10.0741 53.4979 10.1479 53.39 10.2098C52.2711 10.8966 51.0384 11.3775 49.75 11.6298C48.4707 12.0751 47.2243 12.6097 46.02 13.2298C45.6691 13.4042 45.2819 13.4933 44.89 13.4898H42.49L42.52 13.3898ZM42.43 10.2398L42.62 10.3898H44.78C48.62 8.52981 49.31 8.5298 49.65 8.5298C50.3717 8.27127 51.0707 7.95352 51.74 7.5798C51.9213 7.41037 52.0763 7.21489 52.2 6.9998C51.4717 6.2437 50.6598 5.57273 49.78 4.9998C49.3051 4.94202 48.8249 4.94202 48.35 4.9998C47.9864 5.03959 47.6187 4.98181 47.2848 4.83243C46.9508 4.68304 46.6627 4.44743 46.45 4.1498C46.2613 3.89108 46.1316 3.5941 46.07 3.2798H46C45.2502 3.59495 44.522 3.95907 43.82 4.3698C43.821 4.9206 43.747 5.46897 43.6 5.9998C43.5341 6.30323 43.4873 6.6105 43.46 6.9198C44.24 8.2698 43.09 9.5698 42.47 10.2398H42.43Z" fill="#286EB7"/>
<path d="M18 1.52002C15.6536 1.52113 13.3476 2.13153 11.308 3.29147C9.26832 4.45141 7.56483 6.12113 6.36428 8.13716C5.16374 10.1532 4.50729 12.4464 4.45921 14.7924C4.41112 17.1383 4.97306 19.4565 6.08999 21.52L17.28 41.68C17.3518 41.8138 17.4586 41.9255 17.5889 42.0035C17.7192 42.0814 17.8682 42.1225 18.02 42.1225C18.1718 42.1225 18.3208 42.0814 18.4511 42.0035C18.5814 41.9255 18.6881 41.8138 18.76 41.68L29.93 21.48C31.0412 19.4167 31.5978 17.1002 31.5454 14.7573C31.493 12.4143 30.8334 10.1251 29.631 8.11345C28.4287 6.10184 26.7248 4.43673 24.6861 3.28101C22.6473 2.12528 20.3435 1.5185 18 1.52002Z" fill="white"/>
<path d="M18 43.6199C17.5894 43.6133 17.1879 43.4978 16.8365 43.2852C16.4851 43.0726 16.1965 42.7706 16 42.4099L4.80003 22.2099C3.57687 19.9245 2.96683 17.3612 3.0294 14.7698C3.09196 12.1784 3.82499 9.64747 5.15702 7.42377C6.48904 5.20006 8.37458 3.35949 10.6298 2.08153C12.885 0.803567 15.4329 0.131836 18.025 0.131836C20.6172 0.131836 23.1651 0.803567 25.4203 2.08153C27.6755 3.35949 29.561 5.20006 30.893 7.42377C32.2251 9.64747 32.9581 12.1784 33.0207 14.7698C33.0832 17.3612 32.4732 19.9245 31.25 22.2099L20.07 42.4099C19.8662 42.7796 19.5662 43.0872 19.2018 43.3002C18.8374 43.5132 18.4221 43.6237 18 43.6199ZM18 2.99993C15.9119 2.99152 13.8577 3.52816 12.0404 4.55681C10.2232 5.58546 8.70584 7.07051 7.63832 8.86519C6.5708 10.6599 5.99008 12.702 5.95355 14.7899C5.91702 16.8778 6.42595 18.939 7.43003 20.7699L18 39.9199L28.6 20.7499C29.6005 18.9174 30.1055 16.8555 30.0652 14.768C30.0249 12.6805 29.4406 10.6397 28.3701 8.84714C27.2997 7.05459 25.78 5.57235 23.9613 4.54688C22.1426 3.52141 20.0879 2.9882 18 2.99993Z" fill="#286EB7"/>
<path d="M18.02 21.82C21.4276 21.82 24.19 19.0576 24.19 15.65C24.19 12.2424 21.4276 9.47998 18.02 9.47998C14.6124 9.47998 11.85 12.2424 11.85 15.65C11.85 19.0576 14.6124 21.82 18.02 21.82Z" fill="white"/>
<path d="M18 23.32C16.483 23.32 15.0001 22.8701 13.7388 22.0274C12.4775 21.1846 11.4944 19.9867 10.9139 18.5852C10.3333 17.1837 10.1814 15.6415 10.4774 14.1536C10.7733 12.6658 11.5038 11.2991 12.5765 10.2265C13.6492 9.15381 15.0158 8.42331 16.5037 8.12736C17.9915 7.83141 19.5337 7.9833 20.9352 8.56383C22.3367 9.14435 23.5346 10.1274 24.3774 11.3888C25.2202 12.6501 25.67 14.133 25.67 15.65C25.6674 17.6834 24.8584 19.6327 23.4206 21.0706C21.9828 22.5084 20.0334 23.3173 18 23.32ZM18 11C17.0764 11 16.1735 11.2739 15.4055 11.787C14.6375 12.3002 14.039 13.0295 13.6855 13.8829C13.332 14.7362 13.2396 15.6752 13.4198 16.5811C13.5999 17.4869 14.0447 18.3191 14.6978 18.9722C15.3509 19.6253 16.1831 20.0701 17.0889 20.2503C17.9948 20.4304 18.9338 20.338 19.7872 19.9845C20.6405 19.631 21.3698 19.0325 21.883 18.2645C22.3961 17.4965 22.67 16.5936 22.67 15.67C22.6674 14.4322 22.1745 13.2459 21.2993 12.3707C20.4241 11.4955 19.2378 11.0026 18 11Z" fill="#286EB7"/>
<path d="M34 56.6602C33.6022 56.6602 33.2206 56.5022 32.9393 56.2209C32.658 55.9396 32.5 55.5581 32.5 55.1602V39.2402C32.5 38.8424 32.658 38.4609 32.9393 38.1796C33.2206 37.8983 33.6022 37.7402 34 37.7402C34.3978 37.7402 34.7794 37.8983 35.0607 38.1796C35.342 38.4609 35.5 38.8424 35.5 39.2402V55.1602C35.5 55.5581 35.342 55.9396 35.0607 56.2209C34.7794 56.5022 34.3978 56.6602 34 56.6602Z" fill="#286EB7"/>
<path d="M34 49.9999C33.7851 50.0011 33.5725 49.9552 33.3773 49.8653C33.182 49.7755 33.0089 49.6439 32.87 49.4799C32.7379 49.3329 32.6363 49.161 32.5712 48.9744C32.5061 48.7877 32.4789 48.59 32.491 48.3927C32.5031 48.1954 32.5543 48.0024 32.6417 47.8251C32.7291 47.6478 32.8509 47.4897 33 47.3599L42.46 39.1099C42.7597 38.8447 43.1525 38.7094 43.5519 38.7338C43.9514 38.7581 44.3248 38.9402 44.59 39.2399C44.8552 39.5396 44.9905 39.9324 44.9661 40.3318C44.9418 40.7313 44.7597 41.1047 44.46 41.3699L35 49.6199C34.7267 49.8685 34.3694 50.0043 34 49.9999Z" fill="#286EB7"/>
<path d="M45 56.6599C44.7755 56.6601 44.5538 56.6098 44.3513 56.5129C44.1488 56.416 43.9707 56.2748 43.83 56.0999L36.34 46.8799C36.2159 46.7269 36.1231 46.551 36.067 46.3621C36.0109 46.1733 35.9925 45.9753 36.013 45.7793C36.0334 45.5834 36.0922 45.3934 36.1861 45.2202C36.2799 45.047 36.407 44.894 36.56 44.7699C36.7124 44.6445 36.8883 44.5507 37.0773 44.4938C37.2663 44.437 37.4647 44.4182 37.661 44.4387C37.8573 44.4592 38.0476 44.5184 38.2208 44.6131C38.394 44.7077 38.5467 44.8358 38.67 44.9899L46.16 54.2099C46.2854 54.3623 46.3792 54.5382 46.4361 54.7272C46.4929 54.9162 46.5117 55.1146 46.4912 55.3109C46.4707 55.5072 46.4115 55.6975 46.3168 55.8707C46.2222 56.0439 46.0941 56.1966 45.94 56.3199C45.6769 56.5411 45.3437 56.6616 45 56.6599Z" fill="#286EB7"/>
</svg>
