<svg width="70" height="70" viewBox="0 0 70 70" fill="none" xmlns="http://www.w3.org/2000/svg">
<g clip-path="url(#clip0)">
<path d="M58.15 10.6V4.51001C58.15 3.71436 57.8339 2.9513 57.2713 2.38869C56.7087 1.82608 55.9457 1.51001 55.15 1.51001H4.5C3.70435 1.51001 2.94129 1.82608 2.37868 2.38869C1.81607 2.9513 1.5 3.71436 1.5 4.51001V51.91C1.5 52.7057 1.81607 53.4687 2.37868 54.0313C2.94129 54.5939 3.70435 54.91 4.5 54.91H11.29V68.49L28.4 54.91H55.15C55.9457 54.91 56.7087 54.5939 57.2713 54.0313C57.8339 53.4687 58.15 52.7057 58.15 51.91V24.05" fill="#E0E6EA"/>
<path d="M11.29 70C11.0642 70.0052 10.8407 69.9536 10.64 69.85C10.3849 69.7287 10.1696 69.5374 10.0191 69.2983C9.86861 69.0593 9.78916 68.7824 9.79 68.5V56.41H4.5C3.30734 56.4074 2.16428 55.9324 1.32094 55.0891C0.477596 54.2457 0.00264157 53.1027 0 51.91L0 4.51C-2.93605e-06 3.3156 0.473783 2.16998 1.31741 1.32448C2.16104 0.478977 3.30561 0.00264833 4.5 0L55.15 0C56.3427 0.00264157 57.4857 0.477596 58.3291 1.32094C59.1724 2.16428 59.6474 3.30734 59.65 4.5V10.6H56.65V4.51C56.6513 4.31218 56.6135 4.11605 56.5387 3.9329C56.4639 3.74976 56.3536 3.58322 56.2142 3.44287C56.0748 3.30252 55.909 3.19114 55.7263 3.11513C55.5437 3.03912 55.3478 3 55.15 3H4.5C4.30217 3 4.1063 3.03912 3.92366 3.11513C3.74101 3.19114 3.57521 3.30252 3.43579 3.44287C3.29637 3.58322 3.18609 3.74976 3.1113 3.9329C3.03651 4.11605 2.99868 4.31218 3 4.51V51.91C3 52.3078 3.15804 52.6894 3.43934 52.9707C3.72064 53.252 4.10218 53.41 4.5 53.41H11.29C11.6878 53.41 12.0694 53.568 12.3507 53.8493C12.632 54.1306 12.79 54.5122 12.79 54.91V65.39L27.46 53.74C27.7281 53.5289 28.0588 53.4128 28.4 53.41H55.15C55.5478 53.41 55.9294 53.252 56.2107 52.9707C56.492 52.6894 56.65 52.3078 56.65 51.91V24.05H59.65V51.91C59.6474 53.1027 59.1724 54.2457 58.3291 55.0891C57.4857 55.9324 56.3427 56.4074 55.15 56.41H28.92L12.22 69.67C11.9553 69.8804 11.6281 69.9965 11.29 70Z" fill="#286EB7"/>
<path d="M10.67 13.63H37.81C38.2078 13.63 38.5893 13.472 38.8706 13.1907C39.1519 12.9094 39.31 12.5278 39.31 12.13C39.31 11.7322 39.1519 11.3506 38.8706 11.0693C38.5893 10.788 38.2078 10.63 37.81 10.63H10.67C10.2722 10.63 9.89063 10.788 9.60932 11.0693C9.32802 11.3506 9.16998 11.7322 9.16998 12.13C9.16998 12.5278 9.32802 12.9094 9.60932 13.1907C9.89063 13.472 10.2722 13.63 10.67 13.63Z" fill="#286EB7"/>
<path d="M37.81 18.27H10.67C10.2722 18.27 9.89063 18.4281 9.60932 18.7094C9.32802 18.9907 9.16998 19.3722 9.16998 19.77C9.16998 20.1678 9.32802 20.5494 9.60932 20.8307C9.89063 21.112 10.2722 21.27 10.67 21.27H37.81C38.2078 21.27 38.5893 21.112 38.8706 20.8307C39.1519 20.5494 39.31 20.1678 39.31 19.77C39.31 19.3722 39.1519 18.9907 38.8706 18.7094C38.5893 18.4281 38.2078 18.27 37.81 18.27Z" fill="#286EB7"/>
<path d="M20.8 26.29H10.67C10.2722 26.29 9.89063 26.4481 9.60932 26.7294C9.32802 27.0107 9.16998 27.3922 9.16998 27.79C9.16998 28.1879 9.32802 28.5694 9.60932 28.8507C9.89063 29.132 10.2722 29.29 10.67 29.29H20.8C21.1978 29.29 21.5793 29.132 21.8606 28.8507C22.1419 28.5694 22.3 28.1879 22.3 27.79C22.3 27.3922 22.1419 27.0107 21.8606 26.7294C21.5793 26.4481 21.1978 26.29 20.8 26.29Z" fill="#286EB7"/>
<path d="M39.66 42.54L31.35 44.12L32.94 35.81L61.77 6.97998L68.49 13.71L39.66 42.54Z" fill="white"/>
<path d="M31.35 45.62C31.1296 45.6195 30.912 45.5704 30.7127 45.4762C30.5135 45.382 30.3374 45.2451 30.1971 45.0752C30.0567 44.9052 29.9555 44.7064 29.9007 44.493C29.8459 44.2795 29.8389 44.0565 29.88 43.84L31.46 35.53C31.5206 35.2345 31.6666 34.9633 31.88 34.75L60.71 5.92001C60.9925 5.64153 61.3733 5.48541 61.77 5.48541C62.1667 5.48541 62.5475 5.64153 62.83 5.92001L69.55 12.65C69.6911 12.7883 69.8036 12.9532 69.8808 13.1351C69.958 13.317 69.9985 13.5124 70 13.71C69.9975 14.1073 69.8396 14.4877 69.56 14.77L40.72 43.6C40.5066 43.8112 40.235 43.9539 39.94 44.01L31.63 45.6L31.35 45.62ZM34.35 36.55L33.27 42.24L38.96 41.15L66.37 13.71L61.77 9.10001L34.35 36.55Z" fill="#286EB7"/>
<path d="M58.0072 10.7489L55.8859 12.8702L62.6105 19.5948L64.7318 17.4734L58.0072 10.7489Z" fill="#286EB7"/>
</g>
<defs>
<clipPath id="clip0">
<rect width="70" height="70" fill="white"/>
</clipPath>
</defs>
</svg>
